<svg version="1.1" xmlns="http://www.w3.org/2000/svg" viewBox="0 0 144 229" width="100%" height="100%" xml:space="preserve">
<style>

@import url('https://fonts.googleapis.com/css2?family=Annie+Use+Your+Telescope');

svg {
    background: gray;
}

.txt-20 {
    font-family: "Annie Use Your Telescope";
    font-size: 20px;
    font-weight: 600;
    letter-spacing: 3px;
}
</style>
<g id="Layer_3">
<g fill="none" stroke="#000" stroke-width=".6" stroke-linecap="round" stroke-linejoin="round">
<path d="m22.6 176.3 9.2-.1-9.3.3 16.2-.3-16.1.4 16-.3-16.1.3 16.1-.3-16 .3 15.9-.2-16 .4 16.1-.3-16.1.5 16.2-.3-16.2.4 16.2-.3-11.4.4 11.2-.2-9.1.2 9.1-.2M29.1 108.6l10.3-.2-10.3.2 10.3-.1-10.3.2 10.5-.2-10.6.4 10.4-.2-10.4.3 10.4-.2-10.4.4 10.4-.2-10.4.3 10.5-.2-10.5.4.7-.1-.7.2.7-.1-.6.2h.5l-.6.1.7-.1-.7.2h.5l-.4.2h.4-.4.6l-.7.1h.7l-.7.1h.6l-.5.2h.5l-.5.1h.6l-.7.2h.6l-.6.1h.6l-.5.1h.5l-.6.1h.5l-.5.2h.6-.5.6l-.7.2h.5l-.4.1h.5l-.6.1h.7l-.7.1h.7-.7.7l-.6.2h.5l-.5.1h.4l-.5.2h.6l-.7.1h.8l-.6.1h.6l-.7.1h.6l-.5.1h.5l-.6.2h.5l-.4.2.4-.1-.4.2h.6-.7.7l-.7.2h.6l-.6.1h.7l-.6.2h.5l-.5.2h.6-.6.4l-.5.1h.6l-.6.1h.7l-.7.2h.6-.5.6l-.7.2h.6l-.6.2.6-.1-.6.2h.5l-.4.1h.5l-.6.2h.7l-.6.1h.5l-.6.2h.6l-.5.2.5-.1-.5.2h.4l-.5.1.6-.1-.6.1h.6l-.6.1h.7l-.8.1h.7l-.5.1h.4l-.4.1h.5-.5.5l-.6.1h.7l-.6.1.5-.1-.5.2h.4l-.5.1h.7l-.6.1h.6l-.6.1h.5-.5.4l-.5.2h.6-.6.5l-.5.1h.6l-.6.1h.6l-.6.1h.6-.6.6l-.5.1.5-.1-.6.1h.6l-.5.1h.6l-.6.1h.6l-.6.1h.4l-.4.2h.4l-.4.1h.4-.4.5l-.5.1h.6l-.7.2h.7l-.6.1h.4-.4.6l-.7.2h.6-.6.6l-.5.2h.6l-.7.1h.7l-.6.1h.4l-.5.1h.7l-.6.2h.4l-.4.2h.6l-.8.1h.8l-.7.1h.7l-.6.2h.5l-.6.2h.7l-.8.1.6-.1-.5.1h.5l-.4.1h.5l-.6.1h.6l-.6.1h.6-.7.6l-.5.2h.5-.4.5-.6.6l-.5.2h.6l-.7.1h.6l-.6.2h.7l-.7.2h.5l-.4.1h.4l-.4.1h.6l-.6.2h.5l-.5.1h.4-.5.5l-.4.2.4-.1-.5.1h.6l-.5.1h.6l-.7.2h.7-.6.5l-.6.2h.6l-.5.1h.6l-.7.1h.7l-.6.1h.5-.5.6l-.7.2.7-.1-.7.1h.5-.5.5l-.5.2.7-.1-.6.2h.6l-.6.1h.5-.6.7-.7.6l-.6.3.7-.1-.7.2h.7l-.7.1h.6l-.6.1h.5l-.5.1h.6l-.6.2.6-.1-.5.2h.6l-.6.1h.5l-.5.2h.5l-.5.1h.5l-.5.1h.6-.7.5l-.5.2h.6l-.6.1h.6l-.6.1h.6l-.6.1h.6l-.6.1h.5-.5.7l-.7.2h.6l-.6.1h.6-.5.4l-.5.2h.6l-.5.1h.5l-.5.2h.5l-.6.1h.7l-.7.1h.6l-.4.2.5-.1-.7.2h.6l-.5.1h.6l-.7.2h.6l-.5.1h.5l-.6.2h.6-.5.5l-.5.1h.6l-.7.1h.6l-.6.1h.7l-.6.1h.5l-.5.1h.6l-.7.1h.7l-.6.1.5-.1-.6.1h.6l-.5.1h.6l-.6.1h.5l-.5.1h.6l-.6.2h.5l-.6.1h.7l-.7.2h.6-.6.6l-.4.2h.4l-.6.2h.7l-.7.2h.7l-.7.2h.7l-.6.2h.5l-.6.1h.7l-.6.1h.6l-.7.1h.7l-.7.1.6-.1-.6.3.6-.1-.4.2h.5l-.6.1h.5l-.5.1h.5-.5.5l-.6.1h.7l-.7.1h.6-.6.7l-.7.1h.7-.6.5l-.5.2h.5l-.5.1h.5l-.5.1h.5-.6.7l-.7.1h.6l-.5.1.6-.1-.7.1h.7l-.7.2h.6l-.6.1.6-.1-.4.1h.4l-.5.2h.5l-.6.2h.6l-.5.1h.5-.6.6l-.6.1h.6l-.5.2h.5l-.6.1.7-.1-.6.1h.6l-.6.2.5-.1-.5.2h.4l-.5.2h.5l-.3.2h.5l-.6.1h.4l-.5.1.7-.1-.7.1h.6l-.5.1h.5l-.6.1h.6l-.6.2h.7l-.6.1h.5l-.5.1h.5l-.4.1h.4l-.5.1h.6l-.7.1 1.9-.1-1.7.1 6.4-.1-6.5.3 10.4-.2-10.4.3 10.5-.2-10.6.4 10.4-.2-10.4.2 10.4-.2-10.4.4 10.5-.2-10.4.4 10.4-.2-.6.2h.6l-.6.1h.6l-.6.1h.6l-.6.2h.6l-.6.2h.6l-.6.1h.6l-.7.1h.6l-.5.1h.5l-.6.1h.6l-.5.1h.5-.6.6l-.6.1h.6l-.5.1h.4l-.5.1h.7l-.6.2h.5l-.6.2h.5l-.4.1h.5l-.5.1h.4l-.5.1h.7l-.6.1h.5l-.6.1h.6l-.5.1h.5l-.5.1h.5-.6.7l-.6.1h.5l-.6.1h.5-.6.8l-.6.2h.5l-.5.1h.5l-.7.1h.7l-.5.1h.5l-.7.2h.7-.6.6l-.7.2h.7-.5.6l-.7.2.7-.1-.8.1h.8-.6.5l-.6.1h.6l-.6.1h.5l-.5.2h.5l-.5.1.5-.1-.5.2h.5l-.5.1h.6l-.6.1h.5l-.6.2h.6l-.4.2h.5-.5.4l-.6.2h.6l-.5.1h.6l-.7.1h.7l-.7.1h.6l-.6.1h.6l-.5.1h.5-.6.6l-.6.1h.7l-.6.2h.5l-.5.1h.5l-.6.1h.6l-.6.2.7-.1-.6.2h.4l-.4.1h.4l-.4.2h.5l-.5.1h.4l-.6.2h.8l-.6.1h.5-.5.4l-.6.2h.7l-.6.1h.6l-.5.2h.6l-.7.2h.5l-.6.1h.7l-.5.1h.5l-.5.1h.4l-.5.1h.6l-.5.1.5-.1-.6.1h.5l-.6.2h.6l-.5.1h.5l-.5.2h.5-.5.6l-.6.1.6-.1-.7.3h.6-.5.5-.6.7-.6.6l-.6.1h.6l-.7.1h.6-.5.5l-.6.1h.7l-.7.1h.7l-.7.1h.7l-.6.1h.6l-.7.2h.7-.6.5l-.5.1h.4l-.4.1h.5l-.6.1h.6l-.4.1h.5l-.6.1h.6-.6.6l-.6.1h.5l-.6.2h.6l-.5.1h.6l-.6.1.6-.1-.6.2h.5l-.5.2h.4l-.4.2h.4l-.5.1h.6l-.6.2h.7l-.7.1h.7l-.7.2h.5l-.5.2h.7l-.7.2.6-.1-.6.2h.6l-.6.2h.6-.6.6l-.5.2h.5l-.7.1h.7l-.5.2h.4-.5.6l-.7.2h.7-.6.7l-.7.2h.5l-.4.2h.5l-.7.1h.6l-.4.2.5-.1-.5.1h.4l-.5.2h.6-.7.6l-.6.1h.6l-.6.2h.7l-.6.1h.6l-.5.2h.4l-.5.2h.6l-.7.1h.6l-.5.1h.5l-.6.1h.6l-.6.2h.7-.7.6l-.6.1h.6l-.5.1h.6l-.7.1h.7l-.6.2h.5l-.6.1.5-.1-.4.1h.4l-.4.1h.5l-.6.1h.6l-.5.1h.6l-.8.2h.6l-.6.1h.6l-.6.1h.7-.5.5l-.5.1h.6-.7.6l-.5.1h.4l-.5.2h.5-.5.6l-.7.1h.7l-.7.1h.7l-.5.2h.5l-.6.2.7-.1-.6.1h.5l-.6.1h.7l-.6.1h.4l-.4.1h.5l-.6.1h.6l-.6.2.5-.1-.6.3.7-.1-.7.2h.7l-.6.1h.6l-.6.2h.5l-.6.1h.7l-.7.2h.6l-.5.1h.5-.5.6l-.7.1.6-.1-.6.1h.6l-.6.2h.5l-.4.1h.6-.6.6l-.7.2h.6l-.5.2h.5l-.6.1h.6l-.5.1h.5l-.6.1h.6l-.6.1h.6-.5.5l-.6.2h.5l-.5.1h.6l-.6.2h.7l-.6.2h.5-.6.5l-.4.2h.4-.4.6l-.7.2h.6-.5.5-.6.6l-.6.2h.5l-.4.2h.4-.4.5l-.7.1h.8l-.6.2h.5l-.6.1h.5l-.5.2h.5l-.4.1h.4l-.5.2h.5l-.4.2h.5l-.5.1h.4l-.6.1h.7l-.5.2h.5l-.6.1h.6l-.7.2h.7l-.5.1h.4l-.5.1h.6l-.7.1h.7l-.6.2h.4l-.5.1h.6l-.6.2h.6l-.6.1h.6-.5.6l-.5.1h.4l-.5.1h.6l-.7.1h.6l-.6.2h.6l-.6.1h.7-.6.6l-.7.2h.6l-.6.1h.7l-.8.2h.7l-.7.2h.7l-.5.1h.6l-.7.2h.6l-.6.2h.6-.5.4l-.5.1h.7l-.7.2h.7l-.7.2h.6-.6.6l-.6.1h.6l-.6.2h.5l-.6.1h.6l-.5.2h.6l-.6.1h.7l-.7.1h.6l-.6.2.5-.1-.6.2h.6l-.5.1h.6l-.6.2h.5-.5.5l-.5.2h.6l-.7.1h.7-.6.6l-.6.2h.5l-.5.1h.6l-.7.1h.6l-.5.1h.6l-.6.1h.5l-.5.1h.6l-.7.2.6-.1-.5.1h.6-.7.6l-.5.1h.6l-.6.1h.5l-.6.1h.7l-.7.2h.7l-.7.1h.5l-.6.1h.6l-.4.1h.5l-.6.1h.7l-.7.1h.6l-.5.1h.5l-.5.2h.5l-.5.1h.6l-.7.1h.6l-.6.1h.6l-.5.1.5-.1-.6.2h.6l-.6.1h.6l-.5.1h.6l-.7.2.6-.1-.5.1h.4l-.5.2h.7l-.8.2h.7l-.6.1h.6l-.6.1h.6l-.6.1h.6l-.6.2h.6l-.6.2.5-.1-.5.2h.6l-.7.1h.7l-.6.1h.6l-.6.1h.6l-.5.2h.5l-.5.1h.4l-.6.2h.7l-.7.1.7-.1-.7.1h.6l-.5.1h.5l-.6.1h.6l-.5.1h.6-.6.6l-.6.2h.5l-.5.2h.5l-.5.1h.6l-.7.2h.7l-.6.2h.6-.6.5l-.6.2.7-.1-.6.1h.5-.6.5l-.5.2h.7-.6.4l-.5.2.6-.1-.6.2h.7-.7.5l-.4.2h.4l-.4.1h.5l-.5.1h.4l-.5.2h.6l-.7.2.8-.1-.8.2h.7-.6.5l-.6.1h.7l-.7.2h.7l-.6.1h.6l-.6.2h.6-.5.4l-.5.2h.5l-.4.2h.4l-.6.3.7-.1-.6.2h.6l-.5.2h.4l-.6.1h.7l-.7.1h.7l-.7.2h.5l-.4.1.6-.1-.6.2h.6-.6.6l-.7.1.6-.1-.5.2h.4l-.5.1h.6l-.5.1h.6l-.6.1h.5l-.5.1h.6l-.6.1h.5l-.7.2h.7-.5.6l-.7.2h.7M54.5 91.5l25.2-.4-22.5.4 22.4-.4-15.8.4 15.8-.3-14.3.2 14.3-.2"/>
<path d="m38.9 90.8 14.3-.2-14.3.4 32.4-.6-32.5.7 37.6-.7-37.5.7 40.6-.7-40.6.8 40.7-.7-40.8.8 40.9-.7-40.9.8 40.7-.7-40.7.8 40.7-.7-40.6.7 40.8-.7-40.7.9h.5-.7.7l-.5.2h.5l-.6.2h.5l-.4.1h.5l-.6.1h.6l-.6.2h.5l-.4.1h.4l-.4.1h.5-.5.5l-.7.2h.7l-.7.1h.6l-.6.2h.7l-.6.2h.5l-.5.2h.6l-.6.1h.5l-.5.1h.5l-.6.1h.7l-.5.2.5-.1-.6.2h.6l-.6.1h.5l-.5.1h.6l-.5.2h.4l-.6.1h.7l-.7.1h.8-.6.5l-.6.2h.5l-.6.2h.6l-.5.1h.5l-.6.1h.6l-.5.2h.5l-.6.1h.6l-.4.1h.5-.6.5l-.5.2h.5l-.6.1h.6l-.4.1h.5l-.6.2h.6l-.7.1h.8-.8.6l-.6.1h.6l-.5.2h.6-.5.4l-.5.1h.5l-.5.2h.6l-.6.1h.6-.7.6l-.4.1h.5-.6.5l-.5.1h.5l-.5.1h.5-.5.6l-.5.1h.4l-.5.1h.5l-.5.1h.5l-.5.2h.7l-.7.2h.5-.5.6l-.7.1h.8l-.7.2h.6-.7.7l-.6.2h.6-.5.4l-.6.1h.7l-.5.1h.6l-.7.2.6-.1-.6.1h.5l-.5.1h.6l-.5.2.4-.1-.6.1h.8l-.6.2h.5l-.5.1h.6l-.6.1h.5l-.7.1h.7l-.5.1h.5l-.5.1h.6l-.7.2h.6l-.5.2h.6-.7.5l-.5.1h.5l-.4.1h.5l-.6.1h.6l-.6.2h.5-.6.7l-.6.2h.5l-.5.2h.6l-.6.2h.6-.5.6l-.6.1h.4l-.5.1h.6-.6.6l-.7.1h.7l-.5.2h.6l-.8.1h.6l-.4.2h.4-.5.5l-.5.1h.5-.4.5-.6.5l-.5.2h.5l-.5.1h.7l-.8.1h.7-.6.6l-.6.1h.5-.5.6l-.5.2h.5l-.7.1h.7-.6.5l-.5.2.5-.1-.6.2h.7l-.6.1h.6-.6.5l-.5.2h.6-.6.5l-.4.1h.6l-.6.1h.4l-.4.1h.5l-.5.1h.5l-.6.1h.7l-.6.1h.4l-.5.1.6-.1-.5.1h.4l-.5.1h.6l-.5.2.5-.1-.6.2h.5l-.6.2h.6l-.5.1h.6-.5.5l-.6.2.6-.1-.5.2h.5l-.5.1h.5l-.5.1h.4l-.4.2h.5l-.6.2h.5l-.4.1h.6l-.6.1h.5-.6.6l-.5.2h.5l-.6.1h.5l-.6.1h.6l-.4.1h.4l-.4.1h.4l-.4.2h.4l-.6.1h.8l-.6.2h.6l-.7.2h.5-.5.5l-.5.2h.6l-.6.2h.5l-.5.2.7-.1M83 69.4l22.1-.3-18.8.4 22-.4-21 .4 21.8-.3-21.5.4 21.8-.4-18.9.4 21.8-.4-20.4.5 22-.4-17.2.5 21.9-.4-21.1.4 21.8-.4-17.7.5 17.7-.3-15.9.4 16-.3-14.8.3 14.7-.3-10.3.4 10.5-.2-8.1.3 8.1-.2-7.3.2 7.2-.1-4.8.2 4.9-.1-3.7.1 3.6-.1-2.9.1h3"/>
<path d="m78.7 68.5 3-.1-3 .2 5.3-.1-5.3.1 5.9-.1-5.9.3 10-.2-10 .4 14.3-.3-14.4.4 18.1-.3-18.1.5 22.1-.4-22.1.6h.6l-.5.1h.5l-.6.2h.6l-.6.1h.6l-.5.2h.6-.6.6l-.5.1h.4l-.4.1h.4l-.5.2h.5l-.4.2.6-.1-.6.2h.5l-.6.1h.5l-.4.2.5-.1-.6.1h.5-.4.5l-.6.1h.7-.7.5l-.5.2h.6l-.6.2h.7-.8.7l-.5.2h.4l-.4.1.5-.1-.5.1h.5l-.5.1h.4l-.4.1h.4-.5.7-.6.4l-.4.2h.5l-.5.1.5-.1-.5.2h.4l-.5.1h.6l-.5.1.5-.1-.5.2.5-.1-.6.1h.5l-.4.1h.5l-.5.1h.4l-.4.1h.5l-.5.2h.5l-.5.2h.5l-.6.1.6-.1-.4.3h.4-.6.7l-.6.2h.5l-.5.1h.5l-.6.1h.6l-.6.2h.7l-.6.1h.5l-.5.1h.6l-.7.1h.6l-.5.1h.6l-.6.2h.5l-.4.1h.4l-.6.1h.6l-.5.1h.6l-.6.1h.6l-.5.1h.4-.6.7l-.7.2h.6l-.6.2h.7l-.5.2h.5l-.6.1h.6l-.5.2.4-.1-.5.2h.6l-.7.2.8-.1-.6.1h.5l-.5.2h.5l-.6.1h.6-.6.5l-.5.1h.5-.5.5l-.4.1h.4l-.5.2.5-.1-.5.1h.5-.4.4l-.5.1h.6l-.6.1h.5l-.4.1h.4l-.5.2h.6l-.6.1h.7l-.8.1h.8l-.7.1h.7l-.7.1h.6l-.6.1h.5l-.5.1h.6l-.5.1h.4l-.4.2h.6-.6.5-.5.4l-.4.1h.5-.5.5l-.5.2h.6l-.5.2h.4l-.5.1h.5l-.6.1h.6l-.5.1h.4l-.5.1h.6l-.5.1h.5l-.4.2.4-.1-.4.3.5-.1-.7.3h.6-.5.5l-.6.1h.6l-.6.1h.6-.4.5l-.6.2h.6-.7.7l-.5.1h.5l-.6.2h.6-.6.5l-.4.1h.5l-.6.2h.5l-.5.1h.6l-.6.2h.5l-.5.2.6-.1-.7.1h.7l-.7.1h.6l-.5.2h.5l-.4.1h.5l-.6.1h.5l-.5.1h.6-.6.6l-.7.2h.6l-.4.2.5-.1-.5.1h.4l-.5.1h.6-.5.5l-.6.2h.6l-.6.2h.7l-.8.1h.7l-.5.1h.6l-.6.2h.4l-.5.1h.6l-.5.1h.5-.6.5l-.5.2h.6l-.5.1h.4l-.5.2h.6l-.5.2h.5-.5.5l-.6.2h.6-.6.7l-.7.1h.6l-.6.1h.6l-.5.2.6-.1-.7.2h.7l-.7.1h.6l-.5.1h.5-.6.5l-.4.1h.6l-.5.2.4-.1-.4.1h.5l-.5.1h.5l-.6.1h.5l-.6.2h.7-.6.6l-.6.1h.4l-.4.2.5-.1-.6.2h.6-.4.4l-.5.2.5-.1-.4.1h.5l-.5.1h.4l-.6.1h.7l-.6.1h.5-.6.7l-.7.2h.6l-.5.2.6-.1-.6.1h.5l-.4.2h.4l-.5.2h.7l-.7.1h.5-.4.6l-.7.2h.6-.5.4l-.5.1h.5l-.5.1h.6l-.6.2h.5-.5.7-.7.6l-.6.1h.5l-.5.2.5-.1-.6.2h.7l-.5.2.5-.1-.6.1h.6-.6.5l-.4.1.6-.1-.6.1h.4l-.4.2h.6l-.6.2h.6l-.6.2h.5l-.5.1h.4l-.4.1h.4-.4.4"/>
</g>
<path fill="none" stroke="#000" stroke-width=".6" stroke-linecap="round" stroke-linejoin="round" d="M65.8 54.8h.4l-.4.1h.6l-.5.1h.4l-.5.1h.5l-.4.2h.4l-.5.1h.5l-.6.1h.6l-.4.1h.4l-.4.1h.5l-.6.1h.6l-.6.1h.6-.7.7l-.6.2h.6l-.5.1h.5l-.6.2h.6-.5.4l-.6.1h.7l-.7.1h.6l-.5.1h.5l-.6.2h.5l-.5.1.6-.1-.5.2h.4-.4.5l-.4.1h.5l-.7.1.6-.1-.4.2h.5l-.6.1h.5l-.5.1.6-.1-.5.2h.4l-.5.1h.6l-.5.2h.5l-.5.1h.4l-.5.1h.5l-.5.1h.6l-.7.2.7-.1-.6.2h.5l-.5.2h.5l-.4.2.4-.1-.4.2h.5l-.7.2h.5l-.5.2h.6l-.4.2h.5-.7.7-.6.5l-.5.1.6-.1-.6.1h.6l-.6.1h.5l-.5.2h.5-.5.5l-.4.2h.5l-.5.2h.4l-.4.1h.4l-.5.2h.5-.4.4l-.6.1h.7-.6.5-.4.4l-.6.2.6-.1-.4.1h.4l-.4.2h.5l-.6.1h.5l-.4.1h.4l-.6.1.7-.1-.7.1h.7l-.6.1h.5l-.6.2h.7-.5.4l-.5.2h.6l-.6.1.6-.1-.5.1h.4l-.6.2h.7-.6.6l-.5.2h.5l-.5.1h.4-.5.6l-.5.1h.5l-.7.1h.6l-.5.1h.5l-.4.1h.5l-.5.3.4-.1-.5.1h.5l-.5.2h.6l-.6.1h.6l-.5.1h.4l-.5.1h.5l-.4.1h.4l-.4.1h.4-.5.5l-.5.2h.5l-.5.2h.6l-.5.1h.5l-.6.1h.6l-.6.1h.5l-.6.2.7-.1-.7.2h.6l-.5.1h.6l-.6.2h.5-.5.5-.6.7l-.5.1h.5-.5.5l-.7.1.7-.1-.6.2h.6l-.7.2h.6l-.5.1h.6l-.7.3.7-.1-.5.1h.5l-.6.2h.6l-.5.1h.4-.4.5l-.5.2h.4l-.6.2h.6l-.5.1h.5l-.5.1h.6l-.6.1h.5l-.6.1h.6l-.5.2h.5l-.4.1.4-.1-.6.1h.6l-.4.1h.5l-.6.1h.6-.5.6l-.6.2h.4l-.6.2h.7l-.6.1.6-.1-.7.1h.6l-.5.1h.5-.5.5l-.4.2h.4l-.6.2h.7l-.6.2h.5-.6.6-.5.7l-.7.2h.5l-.5.1h.6l-.5.1h.4l-.5.2.6-.1-.7.3h.7l-.6.1h.6-.6.5l-.5.1h.5l-.5.2h.6l-.7.1h.7l-.6.1h.6l-.5.1h.4l-.4.2.5-.1-.5.1h.5l-.6.1h.6l-.7.1h.7l-.5.1h.4l-.6.2h.6l-.6.1h.6-.4.4l-.5.2h.6l-.5.1.5-.1-.6.2h.6l-.6.1h.7-.7.6l-.5.2h.5l-.5.2h.4-.5.5l-.4.2h.5l-.6.2h.5l-.4.2h.5-.6.5l-.4.1h.5l-.6.2h.6l-.6.2h.6l-.6.1h.6l-.5.1h.4l-.4.1h.5-.5.5l-.6.1h.5-.5.6l-.6.2h.6l-.6.2h.5l-.6.1h.7l-.6.1h.5l-.6.1h.7-.5.5l-.6.1h.5l-.5.2h.5-.4.5l-.7.2h.6l-.6.1h.7l-.6.2h.6l-.5.1h.4l-.5.1.6-.1-.6.1h.5-.4.5l-.7.1h.7l-.7.1h.7l-.6.2h.5l-.5.1h.6l-.6.2h.6l-.6.1h.6l-.6.1.6-.1-.5.1h.5l-.6.1h.6-.6.5l-.5.1h.6l-.5.1h.5l-.7.1h.7l-.7.1h.7l-.6.1h.6l-.5.2h.5-.5.5l-.6.1h.7l-.6.1h.4l-.6.1h.7l-.6.1h.6l-.6.2h.6l-.6.1h.5-.5.5l-.6.1h.7l-.5.3.4-.1-.5.1h.5l-.5.1h.5l-.5.1h.6l-.5.1.5-.1-.6.3h.5-.5.5l-.6.1h.7l-.5.1h.4l-.4.2h.4-.4.4l-.5.2h.6l-.6.2h.5l-.6.2h.8l-.6.2h.5-.6.5-.5.5l-.4.1.4-.1-.5.2h.6l-.6.1h.6l-.6.1h.6-.6.6l-.6.2h.6l-.6.2h.5l-.6.1h.6l-.5.1h.6l-.7.1.6-.1-.5.2h.5-.5.5-.4.5l-.6.1h.5-.4.5l-.7.1h.6l-.5.1h.6l-.6.1h.5l-.6.2h.7l-.6.1h.6l-.6.2h.5l-.4.1h.5-.6.5l-.4.2h.5-.6.6l-.6.2h.5-.5.5l-.4.2.5-.1-.6.1h.6l-.6.1h.5l-.4.1h.5l-.6.2h.5l-.4.1h.4l-.5.2.6-.1-.7.2h.7-.5.4l-.4.1h.5-.5.5-.7.7l-.6.2h.5l-.6.1h.8l-.7.2h.6l-.5.1h.4l-.4.2h.6-.7.6l-.5.2h.5l-.6.1h.6l-.6.2.5-.1-.5.1h.5l-.5.2.7-.1-.7.2h.5-.4.4l-.5.1.7-.1-.6.3.5-.1-.6.1h.5l-.5.1.6-.1-.5.2h.5l-.5.1h.5l-.6.2h.5l-.6.1h.7l-.7.2h.7l-.6.1h.7l-.8.1h.6l-.6.1h.7-.7.7l-.6.2h.5l-.5.1h.7l-.7.1h.5-.5.5l-.5.1h.5l-.5.1h.6l-.7.2.7-.1-.5.2h.4l-.4.1h.4l-.5.1h.5-.5.6l-.6.2h.6-.6.5l-.5.2h.7-.6.6-.8.6l-.5.3.6-.1-.6.1h.6l-.5.1h.4l-.5.1h.7l-.7.2.6-.1-.7.1h.7l-.6.2h.6-.6.6l-.7.1h.7l-.6.2.6-.1-.6.1h.5-.4.4l-.5.1h.5l-.5.2h.6-.6.7l-.7.1h.5l-.4.1h.5l-.6.2.6-.1-.5.1h.5l-.6.1.6-.1-.6.2h.5l-.4.1h.4l-.4.1h.5l-.5.2h.4l-.5.1h.6-.6.6M39 76.7h.5-.6.6l-.6.2h.5-.4.4l-.5.1h.6l-.6.1h.5l-.4.1h.5l-.6.1h.6l-.6.1h.5l-.5.2h.5l-.5.2h.5l-.4.1h.4l-.6.2h.6-.6.7l-.5.1.4-.1-.5.2h.6l-.7.1h.8l-.7.2h.6l-.5.2h.5l-.6.2.6-.1-.6.1h.5l-.5.1h.5l-.5.2.6-.1-.6.2h.6l-.5.1h.5l-.5.1h.5l-.6.2h.6-.7.7l-.5.1h.6l-.6.1h.5l-.5.2h.4l-.5.1h.6l-.6.1h.5l-.4.1h.4l-.5.1h.5-.4.6l-.7.2h.6-.7.8l-.8.1.6-.1-.5.1h.5-.6.7l-.5.1h.4l-.5.2h.6l-.6.1h.6l-.6.1h.6l-.7.1h.7l-.7.1h.6l-.5.1h.6l-.6.1h.6-.5.4l-.5.2h.5l-.4.1h.5-.5.5-.6.5l-.5.2h.6l-.5.2h.5l-.5.2.4-.1-.6.2h.8l-.6.2h.4-.5.5l-.4.1h.5l-.7.1h.6l-.5.1h.7l-.6.2h.4-.5.6l-.6.2h.5l-.4.1h.5l-.5.1h.4l-.4.1h.5l-.6.1h.5-.4.5l-.7.1h.6l-.5.2h.6-.7.6l-.5.1h.5l-.4.2h.5-.5.4l-.5.1.5-.1-.4.2h.5l-.6.2h.5l-.4.1.4-.1-.4.2h.4l-.4.1h.4l-.5.2h.6l-.6.2h.7l-.7.1h.6-.6.6l-.6.1.5-.1-.5.2h.6l-.6.2.7-.1-.8.2h.6l-.5.1h.5-.6.7l-.7.2h.8l-.7.1h.6l-.5.1h.5l-.5.1h.4-.5.5l-.5.2.6-.1-.7.1h.7l-.7.1.6-.1-.4.2h.5l-.7.2h.7l-.5.1h.5l-.5.2h.6-.8.6l-.6.2h.6l-.6.2h.8l-.8.2h.7l-.5.2h.5l-.6.2h.6-.5.4l-.5.2h.7-.7.6l-.6.2h.6l-.7.2.6-.1-.5.1h.6-.7.7l-.6.2h.7-.7.7l-.7.2h.6-.5.5l-.5.1h.5l-.5.2h.5-.6.5l-.5.2h.6l-.5.1h.5l-.7.1h.8l-.6.2h.4l-.5.2h.6"/>
<path fill="none" stroke="#000" stroke-width=".6" stroke-linecap="round" stroke-linejoin="round" d="m20.8 82.8 9.1-.2-9 .4 18.1-.4-18.3.5 18.4-.3-18.4.4 18.5-.3-18.4.3 18.2-.3-18.3.4 18.4-.3-18.3.4 18.2-.3-18.3.4 18.4-.3-9.2.4 9.3-.2M29.1 135.4h.4l-.5.2h.6l-.6.1h.5l-.4.1h.5l-.6.2h.5l-.5.1h.7l-.7.2.5-.1-.5.1h.6-.5.4l-.4.1h.5-.6.7l-.6.2h.4l-.5.1h.6l-.5.1h.5l-.4.1h.3l-.5.2h.6-.6.7-.7.6l-.5.1h.6l-.6.1h.5l-.4.2h.5l-.6.1h.6l-.6.1.4-.1-.4.2h.6l-.6.2h.6l-.6.2h.4-.4.5l-.5.1h.5-.5.5l-.6.1h.7l-.7.1h.6-.6.7l-.7.2.7-.1-.6.2h.4l-.5.1h.7l-.6.1.5-.1-.6.2h.7l-.5.1h.4l-.4.1h.3l-.4.1h.6l-.7.1h.7-.6.5l-.5.2h.5l-.5.1h.6l-.6.2h.5-.6.5l-.5.2h.6l-.5.1h.6l-.7.1h.7l-.6.1h.6l-.7.1h.5l-.5.1.7-.1-.6.1h.5l-.6.1h.6l-.6.2h.6l-.6.1h.7-.6.6l-.7.1h.7l-.7.1h.7l-.6.1h.5l-.5.2.6-.1-.6.1h.5l-.5.2h.5l-.5.2.5-.1-.5.3h.4-.5.6l-.5.1h.5l-.6.2.5-.1-.4.1h.4l-.4.1h.5l-.5.1h.5l-.5.2h.5l-.5.1h.5-.6.6l-.6.2h.7-.7.6l-.5.2h.6-.6.5-.4.4l-.6.1h.6l-.6.1h.5l-.5.1h.7M38.5 134.9l8.7-.2-8.7.3 12.6-.3-12.6.4 20.4-.4-20.3.6 31.6-.6-31.7.6 34.7-.6-34.7.7 36.7-.7-36.6.7 37.7-.7-37.7.8 40.5-.7-40.5.8 40.5-.7-37.1.8 37.2-.6-25.5.6 25.4-.5-18.8.5 18.8-.3-8.5.3 8.5-.2"/>
<path fill="none" stroke="#000" stroke-width=".6" stroke-linecap="round" stroke-linejoin="round" d="M74.4 120h.7l-.6.1h.4l-.5.1h.5l-.4.1h.5l-.6.1h.6l-.6.1h.6-.5.5l-.6.2h.5-.4.4l-.4.2h.5l-.6.1h.6l-.6.1h.5l-.5.1h.6l-.7.1h.6l-.5.2h.5-.4.5l-.5.1h.5l-.5.2h.4l-.4.1h.6l-.6.2h.6l-.7.1h.6l-.6.1h.6l-.5.1h.5-.6.6l-.6.1.5-.1-.5.2h.7l-.6.1h.5l-.6.1h.6l-.6.2h.6-.5.5l-.5.2h.4l-.4.1h.6l-.7.1h.5l-.4.2.4-.1-.4.2h.6l-.7.1h.6-.7.6l-.4.2h.5l-.6.2.5-.1-.5.3.5-.1-.4.2h.5l-.6.1h.7l-.7.2h.6-.5.5l-.6.1h.6l-.6.2h.6l-.6.2h.6l-.6.2h.6l-.6.1h.7l-.6.2h.6l-.6.1h.4-.4.4l-.5.2h.5-.4.4l-.5.1.6-.1-.6.1h.7l-.7.2h.5-.5.7l-.7.2h.6l-.5.1h.4-.5.5l-.5.1h.6-.6.6l-.5.2h.4-.5.6l-.5.1h.5l-.6.1h.6l-.6.1h.5l-.5.2h.6l-.6.1h.5l-.4.1h.4l-.4.3h.4l-.4.1h.5l-.6.1h.6l-.5.1h.5l-.6.2h.6l-.6.1h.5l-.4.1h.5-.5.4l-.4.1h.5l-.6.1h.5l-.4.1h.5l-.6.1h.7l-.8.1h.7l-.7.2h.8l-.6.1h.5l-.6.2.7-.1-.7.2h.6l-.5.2h.5-.5.5l-.6.2h.6l-.6.1h.5l-.4.1h.4l-.5.2h.6-.5.6-.6.4l-.6.2h.8l-.6.1h.5l-.5.2h.5-.5.5l-.6.1h.7l-.7.2.7-.1-.7.1h.6l-.6.1h.7l-.6.2h.5l-.5.1h.6l-.6.1h.6l-.6.1h.5l-.5.1h.4l-.5.1h.6l-.5.1h.5l-.5.2h.4l-.5.1h.7l-.7.1h.7l-.7.1h.5-.4.6l-.6.1h.5l-.6.1h.6l-.5.2h.5-.5.5l-.6.1h.5l-.5.2.6-.1-.6.2h.5l-.5.2h.5l-.4.2h.6-.6.4l-.5.1.6-.1-.6.2.6-.1-.5.2h.6l-.6.2h.5-.5.6l-.7.2h.7l-.6.2h.6l-.7.1h.6l-.5.1.5-.1M58 134.7h.7l-.6.1h.6l-.6.1h.5l-.6.2h.6l-.4.1h.5l-.6.1h.6l-.7.2.6-.1-.4.2h.4l-.5.1h.4l-.4.2h.6-.7.7l-.6.1h.5l-.6.1h.7l-.5.1h.5l-.6.1h.5l-.6.1h.7-.6.5l-.6.2h.6l-.6.2h.7-.6.5l-.6.1h.5l-.5.1h.6l-.4.1h.3-.4.5l-.5.2h.6l-.7.1h.7l-.7.2h.7l-.6.1h.5l-.6.1h.5l-.5.2.7-.1-.7.3.7-.1-.6.1h.6l-.7.1.7-.1-.6.3h.4l-.4.2h.5l-.6.1h.6l-.5.1h.6l-.7.1h.6l-.4.2h.4l-.5.1h.6l-.6.1h.4l-.3.1.4-.1-.5.2h.6l-.6.1h.5l-.4.1h.4l-.4.1h.3-.5.6-.6.6l-.6.2h.5l-.4.1h.6-.6.5l-.6.1h.6l-.5.2h.5-.6.6l-.5.2h.5l-.5.1h.6-.7.7l-.6.2h.5l-.5.1h.5-.5.5l-.4.1h.3l-.3.1h.4-.5.5l-.5.2h.5l-.6.1h.6l-.5.1h.4l-.4.1h.5l-.5.1h.6l-.6.2h.5l-.4.1h.4l-.6.1h.6l-.6.1.7-.1-.5.3h.4l-.6.1h.7l-.6.1.4-.1-.5.1h.7l-.7.1h.7l-.6.1h.6l-.7.1h.6l-.6.2h.6l-.5.1h.6l-.6.2.5-.1-.6.1h.6l-.5.2h.5-.5.6l-.6.1h.5l-.6.1h.7-.7.6l-.5.1h.5l-.4.1h.4l-.6.2h.6l-.4.2h.4l-.6.1h.7l-.7.1h.5-.4.4l-.5.1h.6l-.4.2h.4l-.6.1h.6l-.5.1h.6l-.6.1h.6l-.6.1.4-.1-.5.1h.7-.7.5l-.3.1.4-.1-.6.1h.6l-.5.1h.6l-.7.1h.7-.6.6l-.6.1h.6l-.5.1h.5l-.7.1h.7l-.6.1h.5l-.5.1h.5l-.6.2h.5l-.4.1h.5l-.5.1h.5l-.5.2h.6l-.7.1h.7-.6.5l-.6.2h.7l-.6.1h.5l-.5.1h.5l-.5.2h.6l-.7.2h.7l-.6.1h.5-.6.7-.7.7l-.7.2h.7l-.5.1h.3l-.5.1.6-.1-.6.2h.6l-.4.1h.5l-.7.2h.6l-.5.1h.4-.3.4l-.6.2.5-.1-.4.1h.6l-.6.1h.6l-.6.2.5-.1-.4.1h.5l-.7.1h.7l-.7.3.7-.1-.7.2h.6l-.4.2h.5l-.6.2h.6l-.6.1h.4-.5.6l-.6.1h.5l-.5.1h.7-.6.5l-.5.1h.5l-.5.1h.5l-.6.2h.6l-.5.1.6-.1-.5.3.4-.1-.5.2h.6l-.7.1h.7l-.5.2h.5l-.6.1h.5-.6.6l-.5.2h.6l-.7.2h.6l-.5.1h.5l-.5.1h.6l-.5.1h.5l-.7.1h.5l-.4.1h.6l-.6.1h.4-.4.6l-.6.2h.5l-.4.1h.5l-.7.1h.7-.5.5l-.6.2h.6-.6.5l-.5.2h.6l-.6.2.5-.1-.5.2h.6-.6.6l-.6.1h.5l-.6.2.7-.1-.6.2h.6l-.7.1h.7l-.7.1h.7-.6.5l-.5.2h.5-.5.5l-.5.2h.6l-.5.1h.4l-.5.1h.5l-.6.1h.7-.5.5l-.6.1h.6l-.6.1h.5l-.6.2h.6l-.5.1h.5l-.6.1.6-.1-.6.2h.6l-.6.1.6-.1-.5.1h.6l-.6.1h.6l-.7.1h.6l-.5.2h.6l-.7.1h.7l-.6.2h.5l-.6.2h.7l-.7.2h.7l-.6.1h.5l-.6.1h.6-.5.6l-.6.1h.6l-.5.1h.4l-.4.2h.5l-.5.1h.4l-.6.1h.7-.6.5l-.5.2.6-.1-.5.1h.5-.5.5l-.5.2h.5l-.6.1h.6l-.5.1h.3-.5.7l-.7.1h.7l-.5.1h.4l-.5.2h.6l-.7.1h.7l-.6.1h.5l-.5.1h.6-.6.6l-.7.1.7-.1-.7.1h.7l-.7.2.5-.1-.4.2h.5l-.5.1.5-.1-.4.2h.4l-.6.1h.6-.4.4l-.6.2.6-.1-.6.2h.7l-.5.1h.5l-.7.1.7-.1-.7.1h.6-.6.6l-.4.2h.4l-.6.1h.6l-.5.2h.6l-.6.1h.6l-.5.1h.4-.5.4l-.5.2h.7l-.7.1h.7l-.6.2h.6l-.5.1h.5-.7.7l-.7.2h.6-.6.6l-.6.1h.7l-.6.1h.6-.7.6l-.6.1h.7l-.6.1h.5l-.6.1h.6l-.5.1h.6l-.6.1h.5l-.5.1h.6l-.7.2h.7l-.6.2h.5-.6.7l-.7.2h.7l-.6.2h.5-.5.6l-.7.1h.5l-.4.2h.6-.7.7l-.5.1.4-.1-.4.2h.4l-.5.2h.5-.4.5l-.5.1h.4l-.5.2h.6-.5.4l-.5.2h.6l-.7.1h.5l-.3.2h.4-.6.7l-.6.1h.6-.6.5l-.5.2h.4-.5.6-.6.7l-.7.1h.7l-.6.2h.6-.6.5l-.5.1h.6l-.6.1h.5l-.5.1h.6l-.6.1h.5-.6.6l-.5.1h.6l-.5.2h.5l-.6.1h.5l-.6.1h.6l-.6.1.6-.1-.6.1h.7l-.6.2h.6l-.6.2h.5l-.6.2h.6l-.5.1.5-.1-.5.1h.5-.5.6-.6.6l-.6.2h.5l-.4.1.5-.1-.7.2h.6l-.5.1h.5-.6.6l-.6.1.7-.1-.7.2.6-.1-.4.2.4-.1-.6.1h.7l-.6.1h.5l-.5.2h.5l-.6.2h.6l-.5.1h.6l-.5.1h.4l-.6.1h.6l-.6.2.6-.1-.6.1h.6l-.6.1h.7l-.6.1h.5M38.1 176.8h.5l-.6.1h.7l-.7.1h.6l-.5.1h.4l-.4.1h.4-.4.5l-.6.1h.7l-.6.1.5-.1-.5.2.5-.1-.6.2h.5l-.5.1h.5l-.5.1h.6-.6.6l-.5.1h.5l-.6.1.7-.1-.7.1h.6l-.5.2h.5l-.5.1h.5l-.6.2h.5l-.4.1h.4l-.5.1h.5l-.4.2h.5l-.6.2h.6l-.5.2h.4-.4.5l-.6.1h.5l-.5.1h.6l-.6.1h.7-.7.7-.7.5l-.4.1h.5-.5.4l-.4.1h.5l-.6.2h.5l-.5.1h.6l-.6.1h.5-.5.5l-.5.1h.6l-.5.1h.4l-.5.1.6-.1-.6.2h.6l-.5.1h.4l-.5.1h.6-.6.5l-.5.2h.5l-.6.2h.6-.6.7l-.6.2.6-.1-.6.3.6-.1-.6.2h.6l-.7.2h.7l-.5.2h.4l-.5.2h.6l-.6.1h.5l-.4.2h.5l-.6.2h.5l-.5.1h.6l-.6.1h.6-.5.4l-.4.2h.5l-.5.2h.4-.5.6l-.6.2h.5l-.4.1.4-.1-.4.3h.5l-.5.1h.5l-.5.1h.5-.5.4l-.5.1h.6l-.6.1h.6l-.6.2.5-.1-.6.1h.7-.6.5l-.5.1h.5l-.5.2h.7l-.6.1h.4l-.5.1h.6l-.5.1h.4l-.5.1h.7l-.6.2h.4l-.6.2h.6-.4.5l-.6.2.5-.1-.4.2h.4l-.4.2h.4l-.5.1h.6-.5.5l-.6.1h.5l-.5.1h.5l-.6.1h.7l-.6.1h.6l-.5.2h.5l-.5.1h.6l-.7.1h.6-.6.6l-.6.2h.7l-.6.2h.5-.6.5l-.5.1h.6l-.7.1.8-.1-.7.1h.6l-.5.2h.5l-.6.2h.5l-.4.1h.5-.6.6l-.6.2h.6l-.6.1h.6l-.5.2h.4l-.4.1h.5l-.5.1h.4l-.5.2h.5l-.5.1h.5-.4.6l-.6.1h.5l-.6.1h.5l-.5.1h.5l-.5.1.6-.1-.5.1h.5l-.6.1h.7l-.6.1h.5l-.6.2h.6-.5.5l-.5.1h.6-.7.7l-.7.2h.6l-.6.1h.6-.6.7l-.7.1.6-.1-.5.2h.4l-.4.1.5-.1-.6.3.5-.1-.6.2h.7-.6.5l-.5.1.6-.1-.5.2h.6-.7.6l-.5.1h.5l-.5.1h.5l-.6.1h.6l-.5.2h.4l-.4.1h.5l-.6.2h.5-.4.5l-.6.1h.5l-.4.2h.4-.4.6-.7.6l-.6.1h.6l-.6.1.7-.1-.8.2h.6l-.5.2h.7l-.6.1h.6-.7.5l-.6.1h.7l-.5.1h.5l-.6.1h.6l-.6.2.5-.1-.5.1h.6-.6.6l-.6.2h.6l-.6.1h.6l-.5.1h.5l-.6.1h.5l-.4.2h.5l-.5.2h.5"/>
<path fill="none" stroke="#000" stroke-width=".6" stroke-linecap="round" stroke-linejoin="round" d="m58.1 154.5 8.4-.1-8.4.2 13.1-.2-13.3.2 15.8-.2-15.6.4 26-.4-26.2.4 27-.4-26.9.6 37.2-.7-37.2.9 47.8-.9-47.8 1 54.7-1-49.2 1 55.9-.9-55.3.9 55.4-.9-52.6.9 52.6-.9-51.1.9 51-.9-41.2.9 41.2-.7-32.3.7 32.3-.5-22.4.5 22.5-.4-17.8.4 17.7-.3-13.9.3 13.9-.2-12.6.2 12.7-.2-8.5.2 8.5-.1"/>
<path fill="none" stroke="#000" stroke-width=".6" stroke-linecap="round" stroke-linejoin="round" d="M110.3 114.5h.6-.6.6l-.5.2h.4l-.4.1h.5l-.5.1h.5l-.6.2.6-.1-.4.1h.4l-.5.1.6-.1-.7.3.6-.1-.5.1h.6l-.7.2h.7-.7.7l-.5.1h.5l-.7.1h.5l-.3.1h.5l-.7.2h.5l-.5.2h.6l-.6.2h.6l-.6.2h.7l-.7.1.7-.1-.7.2h.7l-.7.1h.6l-.6.1h.7l-.7.1h.6l-.5.2h.6l-.5.2.5-.1-.6.2h.6l-.7.1h.7l-.7.1h.6l-.5.2h.5-.6.6-.4.4l-.5.2h.5l-.6.1h.6-.6.5l-.4.1h.6l-.7.1h.6l-.6.1h.6l-.5.1h.5-.6.7l-.6.1h.5-.5.5l-.5.2h.4l-.4.2.4-.1-.5.3.6-.1-.5.1h.5l-.5.2h.5l-.5.1h.4l-.5.1h.6-.6.7l-.6.2h.6l-.6.2h.5l-.5.1h.5l-.5.1h.4l-.5.2h.6-.5.5l-.4.1h.5l-.6.1h.4l-.5.1h.5l-.5.1h.5l-.5.2h.6-.5.6-.7.6-.6.6l-.6.2h.6l-.6.1h.6-.4.4-.6.6l-.5.2h.4l-.4.1h.6l-.6.3.5-.1-.4.2h.4l-.6.1h.6l-.5.2h.5l-.6.2h.6l-.5.2.5-.1-.5.2h.6l-.7.2h.6l-.5.1h.4l-.5.2h.7-.7.7l-.7.1h.6l-.5.2h.5l-.6.2h.7l-.6.1h.5-.5.5l-.5.2h.4l-.4.2h.5l-.5.1h.6l-.6.2h.6l-.6.1h.5l-.6.2.7-.1-.7.2h.5l-.4.1h.6l-.6.1h.4-.4.5l-.5.2h.5-.5.6l-.6.2h.4l-.4.2h.4l-.5.1h.7-.6.5l-.6.1h.6l-.5.1h.6l-.6.1h.6l-.6.3.6-.1-.6.1h.6-.7.7l-.6.1h.4l-.3.1h.5l-.7.1h.5l-.3.1h.4l-.5.1h.5l-.6.1h.6l-.5.1h.6l-.6.2h.5l-.6.1h.7l-.6.1h.5-.6.6l-.6.1h.6l-.5.1h.6l-.6.2.5-.1-.5.2h.5l-.6.1h.7l-.6.2h.5l-.6.2h.7l-.6.1h.4-.4.6l-.7.2h.6l-.5.1h.5l-.6.1h.7l-.6.2h.6l-.7.1h.6l-.6.1h.7-.5.4l-.5.1h.6-.7.6l-.5.1h.5l-.6.1h.6l-.5.2h.6-.5.3l-.3.1h.4l-.5.1h.5-.5.5l-.6.1h.7l-.6.2h.4-.5.6l-.5.2h.6-.6.5l-.4.2h.4l-.5.1h.5-.6.6l-.5.1h.5l-.6.1h.5l-.5.1h.6l-.5.2.5-.1-.6.2h.6l-.6.1h.7l-.6.1h.4l-.4.1.5-.1-.5.2h.5l-.6.1.5-.1-.5.1h.6l-.5.2h.6l-.7.1.6-.1-.6.2h.6l-.6.1.7-.1-.7.2h.6l-.6.2.7-.1-.7.2h.6l-.6.2h.5l-.4.2h.5l-.6.1h.7l-.6.1h.6-.7.6l-.6.2h.6l-.5.2h.6l-.5.2.3-.1-.5.1h.6l-.4.1.5-.1-.7.2h.5l-.5.2h.6l-.6.1h.6l-.5.2h.4l-.3.1.4-.1-.4.2h.4l-.6.1h.6-.6.5l-.5.1h.6-.5.6l-.7.2.6-.1-.6.1h.5l-.4.2h.6-.7.6l-.5.2h.6l-.7.1h.7l-.7.1h.5l-.4.1h.6l-.7.1h.6l-.5.1h.6-.7.6l-.5.2h.4l-.5.1h.6l-.5.2h.6l-.5.2h.4l-.5.2h.6l-.6.1h.6-.6.6l-.6.2h.5l-.5.2h.5l-.6.1h.6l-.6.1.6-.1-.6.1h.7l-.7.1h.5l-.4.1.5-.1-.5.2h.5l-.5.1h.5-.5.6l-.7.1h.7l-.7.2h.5-.4.5-.4.4l-.5.2h.5l-.5.1.5-.1-.6.1h.6l-.5.1h.6-.6.5l-.5.1.6-.1-.7.2h.6l-.6.2h.6l-.5.1h.6l-.7.1h.6l-.5.1h.5l-.5.1h.6l-.6.1h.6l-.6.1h.6-.7.6l-.5.1h.6-.6.5l-.6.2h.6l-.6.2.5-.1-.4.1h.6l-.7.1h.6l-.5.1h.5l-.4.2h.5l-.7.2h.7l-.6.2h.5l-.6.2h.6l-.6.1h.7-.7.7-.7.5l-.5.2h.6l-.5.2h.5l-.5.1h.6l-.7.2.7-.1-.7.2h.7l-.7.1h.7l-.7.2h.6-.6.6l-.4.1h.4l-.5.2h.6l-.6.1h.6l-.6.2h.5l-.6.1h.6l-.6.2.7-.1-.5.2h.5-.7.6l-.5.1h.6l-.5.2h.5l-.5.1h.5l-.6.1h.6l-.5.2h.5l-.7.1h.7l-.7.1h.7l-.6.1h.5l-.6.2h.6l-.5.2.6-.1-.6.2h.5-.6.5-.4.5l-.4.2h.5l-.6.2h.6l-.6.1h.4-.4.4l-.5.1h.7l-.7.1h.6l-.6.1h.7l-.7.1h.7l-.7.2h.6-.6.7-.6.6l-.6.1h.5l-.5.2h.6l-.6.1h.6l-.6.1h.5-.5.6l-.5.1h.4l-.5.1h.6l-.7.1h.7-.6.5l-.4.2h.5l-.6.1h.5l-.5.2h.6l-.6.2h.5l-.5.2h.6l-.7.1h.6-.5.5l-.6.1.6-.1-.6.1h.7l-.7.1h.7-.6.6-.6.6l-.5.1h.5-.6.6l-.7.2h.6l-.5.1h.6l-.7.1h.7-.7.6l-.5.1h.6l-.6.1h.6l-.5.1.5-.1-.7.2h.5l-.5.1h.6l-.5.1h.5l-.5.2h.6l-.6.1h.5l-.6.2h.7-.5.4l-.6.2h.7l-.7.1h.6-.5.6l-.7.1h.6l-.5.2h.6l-.6.1.5-.1-.5.2h.5l-.6.1h.6l-.6.1h.6l-.5.1h.6l-.6.1h.5l-.6.2h.6l-.6.1h.6l-.5.1h.5l-.5.1h.6l-.7.1.6-.1-.5.2h.5l-.6.1.6-.1-.6.2h.6l-.4.2.4-.1-.5.2h.6l-.6.1h.6-.6.5l-.5.1h.5-.5.5l-.5.2.5-.1-.6.2h.6l-.5.2.5-.1-.6.1h.6l-.6.2h.7l-.5.1h.5l-.6.2h.5l-.6.1.6-.1-.4.1h.4-.6.6l-.4.1h.4l-.5.1h.6-.5.5l-.6.2h.6l-.7.2h.6l-.6.1h.6"/>
<path fill="none" stroke="#000" stroke-width=".6" stroke-linecap="round" stroke-linejoin="round" d="m110.8 127.2 9.3-.2-9.3.4 14.8-.3-14.6.4 14.5-.2-14.6.3 14.5-.3-14.5.4 14.6-.3-14.7.4 14.8-.3-14.7.4 14.6-.3-14.6.4 14.6-.3-14.7.3 14.7-.3-9.3.3 9.3-.2M83.1 155h.5l-.6.2h.7-.6.5l-.6.2h.6l-.5.1.6-.1-.6.2h.5l-.6.1h.6l-.5.2h.6l-.6.1h.5l-.5.1h.4l-.4.1h.5l-.6.2h.7l-.6.2h.5l-.5.1h.4l-.5.2h.7-.7.6l-.5.1h.6l-.7.2h.6-.6.7l-.7.1h.5l-.5.2h.7l-.7.2h.7l-.7.1h.7l-.6.1h.5l-.6.1h.6-.4.4l-.6.2.6-.1-.5.1h.4l-.4.1h.5l-.5.1h.5l-.4.1h.5l-.6.2.6-.1-.6.1h.4l-.4.2h.4l-.4.2h.5l-.5.1h.6l-.6.2h.4l-.5.2.6-.1-.6.3h.6l-.5.1h.5l-.5.2h.4l-.5.1h.5l-.5.2h.6l-.6.2h.6l-.5.1h.5l-.5.2.6-.1-.7.2h.6l-.5.2h.5l-.5.1h.5-.5.5l-.6.2h.5-.4.4l-.5.2h.5-.4.5l-.6.1h.5-.4.5l-.5.1h.4l-.5.2h.7l-.6.2h.4l-.4.2h.4-.5.7l-.6.1h.5l-.5.1h.6l-.6.1h.5l-.5.1h.5-.5.6l-.7.2h.5l-.3.1h.4-.5.5l-.4.2h.4l-.6.1h.5l-.5.2h.6l-.6.1h.7-.6.6l-.6.2h.5l-.5.2h.5l-.5.1h.5l-.6.2h.6l-.5.1h.6l-.7.1h.5l-.4.2h.6-.7.6l-.6.2h.6l-.4.1h.4-.5.6l-.6.2.4-.1-.5.2h.7l-.6.1h.4l-.4.2.5-.1-.5.3.5-.1-.5.2h.4-.4.5l-.6.1h.6l-.5.1h.6l-.7.2.6-.1-.5.1h.5l-.5.1h.5l-.6.2h.7-.7.5l-.4.1h.6l-.6.2h.6l-.7.2h.6l-.6.1h.5-.5.6l-.6.1h.6l-.6.1h.6l-.6.2h.6-.5.5l-.5.1h.5l-.4.2h.5l-.6.1h.5-.5.5l-.6.1h.7l-.6.2h.6l-.7.1h.6-.6.7l-.6.1h.5l-.5.1h.6l-.6.1h.6l-.6.1h.5l-.5.2h.5-.5.5l-.5.1h.5l-.4.1h.4-.6.6l-.6.1h.7l-.6.1h.6l-.6.1h.6-.7.7l-.7.2h.6l-.5.2.5-.1-.6.3.6-.1-.5.2.5-.1-.5.1h.6l-.6.2h.5-.5.5l-.5.1h.5l-.5.2h.6l-.6.1h.6l-.7.1h.6l-.5.2h.5l-.5.2h.5l-.6.2h.6l-.6.1h.6l-.4.1h.5l-.6.2h.5l-.6.1h.6l-.6.2h.5-.5.6l-.5.1h.4l-.4.1h.6l-.7.1h.6-.5.6l-.6.1h.6l-.7.1h.5l-.4.1h.4l-.4.1h.6-.7.6l-.5.1h.5-.5.6l-.6.2h.6-.6.5l-.5.1h.5l-.4.1h.4-.4.4l-.5.1h.6l-.7.1.6-.1-.6.2h.6l-.5.2.5-.1-.6.2h.6l-.6.1h.6l-.4.1h.4-.6.6l-.6.2h.6-.5.4l-.5.2h.5l-.4.1.5-.1-.6.2h.7l-.7.2h.6-.5.5l-.4.2h.5l-.7.1h.6-.5.6l-.6.1h.4l-.4.2h.5l-.5.1h.6l-.7.2h.7l-.6.1h.6-.7.6-.6.5l-.4.1.6-.1-.6.1h.6l-.7.2.6-.1-.6.2h.6l-.6.1h.7l-.6.1h.6-.7.6l-.5.1h.5l-.6.2h.6l-.5.2h.4l-.5.1h.7-.6.6-.6.6l-.7.1h.7l-.7.1h.6l-.5.1h.5l-.5.1h.5l-.6.1h.6l-.5.1h.5l-.6.2.7-.1-.6.3h.5l-.4.1h.4l-.5.2h.4l-.4.1h.6l-.6.2h.5l-.6.1h.7l-.5.2h.5l-.6.1h.5l-.6.2h.6l-.6.1h.7l-.7.2h.7l-.7.1h.6l-.6.1h.7l-.6.2h.6l-.6.1h.5l-.6.1h.6l-.6.1h.7l-.5.1h.5l-.6.1h.5l-.5.2h.5l-.5.1h.5l-.5.1h.4l-.5.1h.5l-.5.1h.7-.6.5l-.6.1h.6l-.5.1h.6l-.7.1h.7l-.7.2h.7-.6.6l-.6.2h.5l-.6.2h.7l-.6.1h.6-.6.6l-.6.1h.6-.6.5l-.6.1h.7l-.7.2h.6l-.5.1h.6l-.7.1h.6l-.5.2h.6l-.5.2h.5-.7.6l-.5.2h.6l-.6.1h.5-.6.7-.6.5l-.5.1h.4l-.5.2h.6l-.6.2h.6-.6.6l-.5.1.6-.1-.6.1h.5l-.6.1h.5l-.5.1h.7l-.6.2h.5l-.6.2.7-.1-.7.1h.6l-.6.1h.7-.6.6l-.7.1h.5l-.5.1h.6l-.5.2h.6l-.6.2h.5l-.4.2h.3-.5.6l-.5.1h.5l-.5.1h.6l-.6.1h.5l-.4.1h.4l-.6.1h.6l-.6.1h.6l-.5.2h.6l-.6.1h.6l-.6.1h.5l-.6.1h.6l-.6.2h.7l-.6.2.5-.1-.5.2h.5-.5.6l-.7.1h.6l-.5.2.5-.1-.5.2h.5l-.5.1h.5l-.6.2h.6-.5.5l-.5.1h.6l-.6.1h.5l-.5.2h.6l-.7.1h.7l-.7.2h.6l-.5.1h.6l-.7.2.6-.1-.5.3.5-.1-.6.3h.7l-.7.1h.6l-.6.1h.6-.5.5l-.6.2h.7l-.6.1h.6l-.7.1.6-.1-.5.1h.6l-.6.1h.5l-.6.1h.5l-.4.2h.6l-.7.1h.5-.4.6l-.7.1h.7l-.6.2.5-.1-.5.1h.5l-.5.1h.6l-.6.1h.5l-.6.2h.6l-.6.1h.5l-.4.2h.5l-.6.1.6-.1-.5.2h.4-.4.5l-.5.1h.5l-.6.2h.6l-.6.1.7-.1-.5.1h.4l-.6.2h.5l-.4.1h.6-.6.4l-.5.1h.6l-.5.1h.6-.7.6l-.6.1h.5l-.5.1h.7-.6.6-.7.6l-.5.1h.5l-.6.1h.7M65.9 155h.5l-.6.1h.5l-.5.2h.5-.5.5l-.5.2h.5-.6.7l-.6.1h.6l-.5.1h.5l-.5.1h.5l-.6.1h.6l-.6.1h.5l-.4.1h.4l-.5.1h.6l-.6.1h.5l-.4.1h.5l-.5.1h.5l-.6.1h.5l-.4.2.4-.1-.5.1h.5l-.4.2h.5l-.7.2h.7l-.7.1h.6-.5.5l-.4.2h.5l-.6.1h.6l-.6.2h.5l-.4.1h.4l-.4.2h.5l-.6.3.5-.1-.5.2h.6l-.7.1h.6l-.5.1h.5l-.5.1h.5l-.6.1h.6l-.5.1h.5l-.6.1h.6l-.5.2h.5l-.5.2h.5l-.6.1h.7l-.6.2h.6l-.6.1h.5l-.6.1h.7l-.6.2h.6l-.6.1h.6l-.6.1h.6l-.6.1h.5l-.5.1h.6l-.6.2h.5l-.4.1h.4l-.4.2h.4-.5.6-.5.5l-.7.2h.7l-.6.2.5-.1-.5.1h.5-.4.3l-.3.1h.5l-.5.1h.4l-.5.2h.6l-.7.1h.7l-.5.2h.4l-.4.1h.4l-.6.1h.6l-.4.2h.4-.4.5l-.5.1h.5-.7.6l-.6.2h.6l-.5.1h.6l-.7.1h.7l-.5.2h.4l-.6.2h.7l-.6.1h.5l-.5.1h.5-.5.5l-.5.2h.6l-.5.1h.5l-.6.2h.5l-.5.1h.6-.5.5l-.6.1h.6-.5.4l-.5.1h.6l-.5.1h.5l-.5.1.5-.1-.5.2h.5l-.5.1h.4l-.4.1h.4l-.5.1h.5-.4.4l-.5.1h.5l-.4.2.5-.1-.6.2h.5l-.4.1h.5l-.7.1h.7l-.6.1h.6l-.7.2h.6l-.4.2h.4-.4.5l-.5.1h.5-.6.5l-.4.2h.4-.5.6l-.6.2.6-.1-.6.1h.5l-.5.2h.6-.6.6l-.7.1h.6l-.4.1h.4l-.5.2h.5l-.6.1h.7l-.6.1h.6l-.7.2h.6l-.4.1h.5l-.6.2h.6l-.5.2h.4l-.5.2h.6l-.5.2h.5l-.5.1h.4l-.6.2h.6-.5.5l-.5.2h.5-.6.6l-.5.1h.5-.4.4l-.6.1h.7l-.7.1h.6-.5.6l-.6.1h.5l-.6.1h.6l-.6.1h.7l-.7.2h.6l-.5.2.5-.1-.6.2h.7l-.7.1h.6l-.4.2h.4l-.5.1h.5l-.5.1h.5l-.5.2h.6l-.6.2h.6l-.5.1h.4l-.5.1h.6l-.6.1h.6-.7.6l-.4.1h.5l-.5.2h.5l-.7.2h.6l-.4.2.4-.1-.6.1h.6l-.4.2h.5l-.7.2h.7l-.7.1h.6l-.6.2h.7-.7.7l-.6.2h.5l-.6.1h.6l-.5.1.5-.1-.5.2h.5l-.5.1h.6l-.5.2h.4l-.5.1h.6l-.7.2h.6-.5.6l-.6.1h.6l-.6.2h.5l-.4.1h.5l-.5.1h.5-.6.6-.6.6l-.5.2h.5l-.5.1h.4l-.4.2h.6-.7.5l-.4.1h.4-.5.6l-.7.1h.6l-.5.1h.6l-.5.2h.4l-.6.2h.6-.5.5l-.5.1h.6-.7.7l-.6.2h.6l-.7.1h.8l-.6.1h.5-.6.6l-.6.1.6-.1-.5.1h.5l-.7.1h.6-.5.5-.6.6l-.5.1h.5-.6.7-.6.6l-.7.1h.7l-.5.1h.4l-.6.2h.7l-.6.1h.6l-.6.1.6-.1-.6.2h.5l-.5.1h.5l-.5.2h.5l-.4.2h.5l-.6.1.6-.1-.6.2h.5l-.5.2h.5l-.4.1h.5l-.6.1h.5l-.5.1h.7l-.8.2h.6-.4.4l-.4.2h.5l-.6.1h.5l-.4.1.5-.1-.6.2h.7-.7.5l-.5.2h.6l-.7.1h.7l-.6.1h.6l-.6.1h.5l-.6.1h.6l-.5.1h.5l-.6.2h.6l-.5.2.5-.1-.5.1h.5-.6.6l-.6.2h.6l-.5.1h.6-.6.6l-.7.2h.7l-.6.2h.6-.5.6l-.6.2h.4l-.6.1h.7l-.7.1h.7l-.6.1h.6-.5.5l-.6.2h.5l-.5.1.6-.1-.7.1h.6l-.4.2h.5l-.6.1h.5l-.4.1h.5l-.6.1h.5-.6.7l-.6.1h.7-.7.5l-.5.2h.5-.4.5l-.6.2h.5l-.6.2h.6l-.6.1h.8l-.7.1h.6-.5.5l-.7.2h.7-.7.7l-.5.1h.4l-.6.1h.7-.5.5l-.7.2h.7l-.5.1h.5l-.6.1h.6l-.5.2h.4l-.5.2h.5l-.4.2h.5-.5.5-.5.5l-.6.2h.6l-.5.1h.4l-.5.1h.6l-.7.2h.7l-.7.1h.6l-.4.1h.4l-.5.1.6-.1-.7.2.7-.1-.6.3.6-.1-.5.2h.5l-.6.2h.5-.4.5l-.5.1h.4-.5.5l-.6.2h.6l-.5.1h.5l-.4.1h.5l-.5.2h.5l-.6.1h.6l-.6.1h.6-.5.5-.5.4l-.6.2h.6l-.5.1h.6-.6.5l-.5.2h.6-.7.7l-.5.1h.5l-.5.2h.4-.6.8l-.8.1h.6l-.4.2h.5l-.5.1h.5l-.5.1h.5-.7.6l-.5.1h.6l-.5.2h.5l-.6.1h.6l-.5.2h.5l-.6.1h.6l-.6.1.5-.1-.4.1h.5l-.7.1h.7-.5.4l-.5.1h.6l-.7.1h.6l-.4.2h.5l-.7.1h.7l-.6.2h.5-.5.5l-.5.1h.5l-.6.2h.8l-.6.1h.5l-.7.1h.6l-.6.2h.7l-.6.2h.5l-.6.1h.6-.6.7l-.6.2h.7l-.7.2h.6l-.5.1h.4l-.6.2h.6-.5.6l-.6.1h.6l-.5.2h.5l-.7.1h.6-.5.7l-.8.1h.6l-.6.2h.7-.7.6l-.5.2h.6-.5.4l-.5.1h.5l-.6.1h.7l-.5.1h.5l-.5.1h.4l-.5.2h.5l-.5.2.7-.1-.8.2h.6-.6.6-.6.7l-.6.1h.5l-.6.1h.7l-.5.1h.4-.5.6l-.6.2h.6l-.6.1h.6l-.7.1h.7l-.7.2h.7l-.6.1.5-.1-.5.1h.5-.6.7l-.6.2h.6l-.5.1h.4l-.5.1h.7l-.7.2h.7l-.6.2h.5l-.5.1h.4l-.6.2h.6l-.4.2h.4l-.5.2h.6l-.6.1.6-.1-.6.2h.5l-.4.2h.5l-.6.1h.5l-.5.1h.5l-.4.2.5-.1-.7.2h.7-.5.5-.5.4l-.5.1h.6l-.6.2h.5-.4.6-.8.7l-.6.2h.5-.5.6l-.5.2h.4-.6.7l-.6.1h.5l-.6.2h.6l-.4.2h.4-.6.7-.7.7l-.7.2h.7l-.6.2h.5-.4.5l-.6.2h.6l-.7.1h.7-.6.5l-.5.1h.5l-.5.2h.6l-.5.1h.5l-.6.1h.6l-.6.2.6-.1-.6.1h.6-.6.7l-.8.1h.6l-.4.1h.4-.5.6l-.6.1h.5l-.4.2h.5-.6.6-.6.7l-.6.2h.4l-.5.2h.5l-.5.1h.5-.4.5l-.7.1h.7l-.5.2h.4-.5.6l-.6.1h.6-.6.5l-.4.2h.4l-.6.1h.7l-.6.1.5-.1-.6.2.6-.1-.4.1h.6l-.6.2h.5l-.7.2h.7l-.6.1h.5l-.6.1h.7l-.6.1.6-.1-.5.3h.5l-.6.1h.5l-.5.1h.6l-.5.1h.4l-.4.1h.5l-.7.1h.8l-.7.2h.5l-.5.1h.6l-.6.1h.5l-.4.2h.5l-.7.1h.7l-.6.2.6-.1-.5.2h.4l-.5.2.6-.1-.6.2h.5l-.4.1h.5l-.7.1h.7l-.7.3.7-.1-.5.2h.5l-.5.1h.5l-.5.2h.5l-.6.1h.6l-.6.2h.5-.6.7l-.5.1h.5l-.5.1h.5l-.6.1h.6l-.6.2h.5l-.5.1h.5l-.5.1h.6-.6.5l-.6.2h.6l-.5.1h.7l-.7.1h.6l-.5.2h.5-.6.6l-.5.1h.4l-.5.1h.6-.6.5l-.4.2h.5l-.6.1h.6l-.6.1h.6-.7.7l-.5.2h.5l-.6.1.6-.1-.5.2h.5l-.5.2h.5-.5.4l-.5.2h.5l-.5.1h.5l-.4.1h.5l-.5.1h.5l-.6.1h.6l-.7.1h.8"/>
<path fill="none" stroke="#000" stroke-width=".6" stroke-linecap="round" stroke-linejoin="round" d="m83.7 181.5 3.4-.1-3.5.2 7.7-.1-7.8.3 13.3-.2-13.3.4 17.9-.3-17.8.5 22.9-.4-23 .4 24.4-.4-20 .6 25-.5-24.7.5 25-.5-20.6.6 25.2-.5-20.7.6 25.2-.5-20.2.6 25-.5-22.1.5 24.9-.4-20.6.5 20.7-.4-20.4.4 20.4-.3-19.5.3 19.4-.3-16.8.4 17-.3-12.8.4 12.7-.3-12.3.3 12.3-.2-9.8.2 9.7-.1-7.7.2 7.7-.2-7.1.2 7.2-.1-3.5.2 3.4-.1"/>
<path fill="none" stroke="#000" stroke-width=".6" stroke-linecap="round" stroke-linejoin="round" d="M103.9 181.9h.5l-.4.1h.5l-.5.2h.5l-.7.1h.6l-.5.1h.6l-.7.2h.6l-.6.1.7-.1-.6.2h.6l-.7.2h.7l-.5.1h.5l-.5.2.4-.1-.6.2h.6l-.5.2h.6-.6.5l-.5.1h.6l-.6.2h.5l-.4.1h.5l-.7.1h.6l-.5.1h.6-.6.6-.6.5l-.4.1h.5-.6.5l-.4.2h.4-.5.5l-.5.1h.7l-.6.1h.4-.5.6l-.5.1h.5l-.6.2h.5-.4.4l-.4.1h.5-.6.5l-.5.1h.5l-.5.2.6-.1-.5.2h.4l-.4.2h.5-.6.5l-.5.1.6-.1-.6.1h.6l-.6.1h.6l-.6.1.6-.1-.6.2h.5l-.6.1.7-.1-.7.1h.6l-.5.2h.6l-.6.1h.6l-.6.1h.6l-.6.1h.5l-.4.2h.5l-.5.2.4-.1-.5.2h.5l-.5.2h.5l-.5.2h.5l-.6.1h.6-.4.5-.7.6l-.4.1h.4l-.4.1h.4l-.4.1h.4-.6.7l-.6.2.6-.1-.7.1h.7-.5.5l-.6.2h.5-.4.5l-.6.2h.5l-.5.1h.6l-.5.2h.4l-.4.1h.5-.5.4l-.6.1h.6l-.6.1h.7l-.6.1h.5-.5.6l-.6.1h.6l-.7.1h.7-.5.5l-.5.2h.5l-.7.2h.6l-.5.2h.5l-.6.1.7-.1-.6.2h.5l-.5.2h.6-.5.5l-.6.1h.5l-.4.1h.4l-.5.2h.6-.5.4l-.4.2h.5-.7.6l-.5.1h.5l-.6.2.7-.1-.6.1h.6-.6.7l-.6.1h.4l-.4.1h.5-.6.6l-.5.1h.4-.5.5l-.5.1h.6l-.6.1h.6l-.5.1h.5l-.7.1h.7l-.5.1h.5-.5.5l-.6.2h.5l-.6.2h.7l-.7.1h.6l-.6.1.6-.1-.5.1h.5l-.5.2h.6l-.6.2h.6-.5.5l-.5.2h.5l-.6.1.5-.1-.6.2h.7l-.6.2h.6l-.6.2h.7l-.7.1h.5l-.6.1h.8l-.7.1h.5l-.6.1h.7l-.6.1h.5l-.6.1h.7-.6.5l-.5.2h.5l-.4.2h.6l-.6.2h.4l-.5.2h.5l-.5.1h.5l-.4.2h.5l-.5.1h.4l-.5.2h.5l-.5.1h.5l-.5.1h.6l-.6.2h.6l-.6.2.7-.1-.7.1h.6l-.5.2.4-.1-.4.1h.4l-.5.2h.6-.6.6-.6.5l-.5.2h.7l-.7.1h.6-.7.7l-.5.1h.5l-.7.1h.7l-.5.1h.4l-.5.1h.6-.6.6l-.6.2h.6l-.6.2h.6l-.7.1h.7l-.5.1h.4l-.4.1h.4l-.4.1h.4l-.5.1h.5l-.4.1h.4l-.4.2h.4l-.6.1h.7l-.5.1h.5l-.6.1h.5l-.5.1h.6-.5.5l-.6.1h.5l-.5.2h.5l-.4.1h.4l-.5.1h.5l-.5.1h.6l-.7.1h.6l-.5.1h.5l-.5.2h.7l-.7.1h.6l-.5.2h.6-.8.6l-.4.1h.5l-.6.2h.6l-.7.1h.7l-.5.2h.4-.4.5l-.7.1h.6-.6.6l-.6.1h.7l-.6.2h.5l-.5.2.5-.1-.6.2.6-.1-.6.1h.6l-.5.1h.5l-.6.2h.7l-.5.2.5-.1-.6.3.5-.1-.6.1h.6l-.6.1h.6l-.4.1.5-.1-.6.2h.6l-.7.1h.7l-.6.2h.5l-.5.1h.5l-.4.2.4-.1-.5.2h.5l-.4.2h.4-.4.4l-.4.2.5-.1-.5.1h.6l-.6.1h.5l-.6.2.7-.1-.6.2h.4-.5.5l-.6.1h.7l-.5.2h.4-.5.6l-.7.1h.6l-.5.1h.5l-.4.2h.6l-.7.2.5-.1-.5.2h.6l-.6.2h.6l-.5.1h.6l-.7.1h.5-.6.6l-.5.1h.6l-.5.1.5-.1-.7.2.6-.1-.6.3.6-.1-.4.2.6-.1-.7.1h.5l-.4.2h.5l-.6.1h.6l-.6.1h.5-.5.6l-.6.2h.6l-.5.1h.4l-.5.1.6-.1-.6.2h.6l-.6.1h.5l-.5.2h.7-.7.7l-.7.1h.6l-.6.1h.7l-.7.1h.5l-.4.1.5-.1-.5.1h.6l-.6.1h.4-.5.7l-.7.1h.5l-.5.1h.6-.6.7M23.5 108.6l8.7-.2-8.6.4 20.8-.4-20.9.5 26.5-.5-26.5.7 29.4-.5-29.3.6 29.4-.5-29.4.7 29.3-.5-19.8.5 20-.4-17.9.4 17.8-.3-8.8.3 8.8-.2"/>
</g>
<g id="Layer_1">
<g fill="#1C98D1" stroke="#000" stroke-linejoin="round" stroke-miterlimit="10">
<path d="M73.7 48.3c0-.5.1-.6.1-.9v-.8c0 .1-.1.3-.1 0s-.1-.5-.1-.9c0-.1-.3-.4-.3-.9 0-.2-.2 0-.2-.5l-.4-1c0-.3-.9-.2-.9-.8 0-.2-.2-.4-.2-.6 0-.1-.5-.4-.5-.4 0-.3-.8-.4-.8-.7 0-.7-3.8-.9-3.7-.9-1.6-.3-5.1 2.9-5.2 3-.2.1-.3.3-.4.5.1-.1-.6 1.6-.8 1.9.1-.1 0 .5-.1.8-.1.3-.2.6-.2.9v.7c0 .1.1.4.1.9 0 0 .1.2.1.4s.1.4.2.4c0 .4.1.2.1.3 0 .4.2.3.2.5 0 .4.2.4.2.5l.2.3c0 .4.4.8.6 1 .1.1.2.1.2.2.1.1.1.2.2.2.2 0 1.1.7 1.1.6.1-.1.5.4.6.5.1.2.2.5.4.6.3.2 2.1-.1 2.1.3 0 0 1.7-.9 1.7-.1l2.3-.8c.3.1.5 0 .5-.2.3 0 1.5-1.1 1.5-1.4 0-.1.3-.5.3-.6l.6-.9c0-.2.3-.5.3-.6 0-.5.4-.4.3-.8-.2-.3 0-.4 0-.7zm-13.8-.4c0-.1 0-.1 0 0 0-.1 0-.1 0 0zm12.8 3c0-.1.1-.1.2-.2-.1.1-.2.3-.2.2zM46.1 70.9c0-.5.1-.6.1-.9v-.8c0 .1-.1.3-.1 0s-.1-.5-.1-.9c0-.1-.3-.4-.3-.9 0-.2-.2 0-.2-.5l-.4-1c0-.3-.9-.2-.9-.8 0-.2-.2-.4-.2-.6 0-.1-.5-.4-.5-.4 0-.3-.8-.4-.8-.7 0-.7-3.8-.9-3.7-.9-1.6-.3-5.1 2.9-5.2 3-.2.1-.3.3-.4.5.1-.1-.6 1.6-.8 1.9.1-.1 0 .5-.1.8-.1.3-.2.6-.2.9v.7c0 .1.1.4.1.9 0 0 .1.2.1.4s.1.4.2.4c0 .4.1.2.1.3 0 .4.2.3.2.5 0 .4.2.4.2.5l.2.3c0 .4.4.8.6 1 .1.1.2.1.2.2.1.1.1.2.2.2.2 0 1.1.7 1.1.6.1-.1.5.4.6.5.1.2.2.5.4.6.3.2 2.1-.1 2.1.3 0 0 1.7-.9 1.7-.1l2.3-.8c.3.1.5 0 .5-.2.3 0 1.5-1.1 1.5-1.4 0-.1.3-.5.3-.6l.6-.9c0-.2.3-.5.3-.6 0-.5.4-.4.3-.8-.2-.3 0-.4 0-.7zm-13.8-.4c0-.1 0-.1 0 0 0-.1 0 0 0 0zm12.8 3c0-.1.1-.1.2-.2-.1.1-.2.3-.2.2zM77.5 119.3c.4-.2.5-.2.8-.4.2-.1.7-.5.7-.4-.1 0-.3.1 0-.1.2-.1.3-.3.7-.6.1-.1.2-.5.6-.7.2-.1-.1-.2.3-.4l.6-.8c.3-.2-.3-.9.2-1.2.2-.1.3-.4.4-.5.1-.1.1-.6.1-.6.2-.1-.1-.9.1-1.1.6-.3-1.2-3.7-1.1-3.7-.6-1.5-5.1-2.9-5.3-2.9-.2-.1-.4-.1-.7-.1.1 0-1.7.3-2 .3.1 0-.5.3-.7.3-.3.1-.6.1-.9.3-.1.1-.4.3-.5.4-.1 0-.1.1-.1.1-.1.1-.3.3-.7.5l-.3.3c-.1.1-.2.3-.3.3-.3.2-.1.2-.2.2-.4.2-.1.3-.3.5-.3.2-.2.4-.3.4 0 0-.1.3-.2.3-.3.2-.5.7-.5 1v.3c0 .1-.1.2-.1.3 0 .2-.1 1.3 0 1.3s-.1.7-.1.7c-.1.2-.3.5-.3.7 0 .4 1.1 1.7.8 1.9 0 0 1.7 1 .9 1.5L71 119c.1.3.2.4.5.3.2.2 1.7.7 2 .5.1 0 .6 0 .6-.1 0 0 1 .1 1.1 0 .2-.1.6-.1.7-.1.4-.2.5.1.9-.1.2-.1.4 0 .7-.2zm-6.7-12zm3.9 12.5h.2c-.1.1-.3.1-.2 0zM135.5 130.2c0-.3.1-.4.1-.7v-.6c0 .1 0 .2 0 0s-.1-.4-.1-.7c0-.1-.3-.3-.3-.7 0-.2-.2 0-.2-.4l-.3-.7c0-.2-.7-.1-.7-.6 0-.1-.1-.3-.2-.5 0-.1-.4-.3-.4-.3 0-.2-.6-.3-.7-.5 0-.5-2.9-.6-2.8-.6-1.2-.2-3.7 2.3-3.8 2.4-.1.1-.2.3-.3.4 0 0-.4 1.2-.5 1.4v.6c0 .2-.1.5-.1.7v.6c0 .1.1.3.1.6 0 0 0 .2.1.3 0 .1.1.3.1.3 0 .3.1.2.1.2 0 .3.2.2.2.4 0 .3.2.3.2.3l.1.2c0 .3.3.6.5.7.1.1.1.1.2.1.1.1.1.1.1.2.1 0 .8.5.9.5.1-.1.4.3.4.4.1.1.2.4.3.5.2.1 1.6-.1 1.6.2 0 0 1.3-.7 1.3-.1l1.7-.7c.2 0 .4 0 .4-.2.2 0 1.1-.9 1.1-1.1 0-.1.2-.4.2-.4l.4-.7c0-.2.2-.4.2-.5 0-.4.3-.3.2-.6-.2 0-.1-.1-.1-.4zm-10.4 0c.1 0 .1 0 0 0 .1 0 .1 0 0 0zm9.7 2c0-.1.1-.1.1-.1 0 .1-.1.2-.1.1zM14.5 185.3c.4.1.5.3.8.4.2 0 .9.2.8.2-.1 0-.3-.1 0-.1.3.1.5 0 .9.1.1 0 .5-.2.9-.1.2.1.1-.2.5-.1l1-.1c.3.1.4-.8 1-.7.2.1.5-.1.6 0 .1 0 .5-.4.5-.4.3.1.6-.7.9-.6.6.2 1.9-3.4 1.9-3.3.7-1.4-1.4-5.7-1.5-5.8-.1-.2-.2-.4-.4-.6 0 .1-1.3-1-1.6-1.3.1.1-.5-.2-.7-.3-.3-.2-.5-.4-.8-.4-.2 0-.5-.1-.6-.1h-.1c-.1 0-.4 0-.8-.1 0 0-.2 0-.4-.1H17c-.4-.1-.2 0-.3 0-.4-.1-.3.1-.6.1-.4-.1-.4.1-.5.1l-.3.1c-.4-.1-.9.2-1.1.3-.1.1-.2.1-.3.2-.1 0-.2 0-.3.1-.1.1-1 .8-.9.9.1.1-.5.4-.6.4-.2 0-.5.1-.7.2-.3.2-.5 2-.9 1.9 0 0 .4 1.9-.4 1.7l.1 2.4c-.1.2-.2.4.1.6 0 .3.6 1.7.9 1.8.1 0 .4.4.5.4l.7.8c.2.1.4.4.5.4.5.1.3.4.7.6.5.1.6.3.9.4zm4.3-13.1zm-6.6 11.4c.1 0 .1.1.1.2 0-.1-.2-.2-.1-.2zM60.7 214.5c.1.4 0 .6.1.9.1.2.3.8.2.8 0-.1 0-.3.1 0s.2.4.3.8c0 .1.4.3.6.8.1.2.2 0 .3.4l.7.8c.1.3.9-.1 1.1.5.1.2.3.4.3.5 0 .1.6.2.6.2.1.3.9.1 1 .4.2.6 3.9-.2 3.8-.1 1.6-.2 4.1-4.2 4.2-4.3l.3-.6c-.1.1.1-1.7.2-2 0 .1-.1-.5-.1-.8 0-.3 0-.7-.1-.9 0-.2-.2-.5-.2-.6v-.1c0-.1-.2-.4-.3-.8l-.2-.4c0-.2-.2-.3-.2-.3-.1-.4-.2-.2-.2-.2-.1-.4-.3-.2-.4-.5-.1-.4-.3-.3-.3-.4 0 0-.2-.2-.3-.2-.1-.4-.6-.6-.8-.8-.1 0-.2-.1-.3-.1-.1-.1-.1-.2-.2-.2-.2 0-1.2-.4-1.2-.3 0 .1-.6-.3-.7-.3-.1-.1-.3-.4-.5-.5-.4-.1-2 .6-2.1.2 0 0-1.4 1.3-1.7.5l-2 1.4c-.3 0-.5.1-.4.4-.3.1-1.1 1.4-1 1.7 0 .1-.1.6-.1.6l-.3 1c.1.2-.1.6-.1.7.1.5-.2.4-.1.9s0 .6 0 .9zm13.4-3.2c0 .1 0 .1 0 0zm-13.1.4c0 .1 0 .1-.1.2.1-.1.1-.3.1-.2z"/>
</g>
<g fill="#477640" stroke="#000" stroke-linejoin="round" stroke-miterlimit="10">
<path d="M130.9 71.5c0-.4.1-.5.1-.7v-.6c0 .1 0 .2 0 0s-.1-.4-.1-.7c0-.1-.3-.3-.3-.7 0-.2-.2 0-.2-.4l-.3-.8c0-.3-.7-.2-.8-.6 0-.2-.1-.3-.1-.5 0-.1-.4-.3-.4-.3 0-.2-.7-.3-.7-.5 0-.5-3.1-.7-3-.7-1.3-.2-4.1 2.4-4.2 2.5-.1.1-.3.3-.3.4.1 0-.5 1.3-.6 1.5 0-.1 0 .4-.1.6-.1.2-.2.5-.2.7v.6c0 .1.1.3.1.7v.4c0 .1.1.3.1.3 0 .3.1.2.1.2 0 .3.2.2.2.4 0 .3.2.3.2.4l.1.2c0 .3.3.6.5.8l.2.2c.1.1.1.2.2.2s.9.6.9.5c.1-.1.4.3.4.4.1.1.2.4.3.5.3.2 1.7-.1 1.7.3 0 0 1.4-.7 1.4 0l1.9-.8c.2 0 .4 0 .4-.2.3 0 1.2-.9 1.2-1.1 0-.1.2-.4.2-.5l.5-.7c0-.2.2-.4.2-.5 0-.4.3-.3.3-.7-.1-.4.1-.5.1-.8zm-11.2-.3zm10.4 2.5c0-.1.1-.1.1-.1-.1 0-.1.2-.1.1zM20.5 84.8c0-.5.1-.6.1-.9v-.8c0 .1-.1.3-.1 0s-.1-.5-.1-.9c0-.1-.3-.4-.3-.9 0-.2-.2 0-.2-.5l-.4-1c0-.3-.9-.2-.9-.8 0-.2-.2-.4-.2-.6 0-.1-.5-.4-.5-.4 0-.3-.8-.4-.8-.7 0-.7-3.8-.9-3.7-.9-1.6-.3-5.1 2.9-5.2 3-.2.1-.3.3-.4.5-.1.1-.7 1.8-.9 2.1.1-.1 0 .5-.1.8-.1.3-.2.6-.2.9v.7c0 .1.1.4.1.9 0 0 .1.2.1.4s.1.4.2.4c0 .4.1.2.1.3 0 .4.2.3.2.5 0 .4.2.4.2.5l.2.3c0 .4.4.8.6 1 .1.1.2.1.2.2.1.1.1.2.2.2.2 0 1.1.7 1.1.6.1-.1.5.4.6.5.1.2.2.5.4.6.3.2 2.1-.1 2.1.3 0 0 1.7-.9 1.7-.1l2.3-.8c.3.1.5 0 .5-.2.3 0 1.5-1.1 1.5-1.4 0-.1.3-.5.3-.6l.6-.9c0-.2.3-.5.3-.6 0-.5.4-.4.3-.8-.1-.5.1-.6.1-.9zm-13.8-.4c.1-.1.1-.1 0 0 .1-.1 0 0 0 0zm12.8 3c0-.1.1-.1.2-.2-.1.1-.2.3-.2.2zM90.3 142.2c.3-.3.5-.3.7-.5.1-.1.6-.6.5-.6-.1.1-.2.2 0-.1.2-.2.3-.4.5-.7.1-.1.1-.5.4-.9.2-.2-.1-.2.2-.5l.4-.9c.2-.2-.5-.8-.1-1.2.1-.1.2-.4.3-.6.1-.1-.1-.6-.1-.6.2-.2-.3-.9-.1-1.1.5-.5-2.1-3.3-2-3.3-.9-1.3-5.7-1.5-5.8-1.5-.2 0-.5 0-.7.1.1 0-1.5.7-1.9.8.1 0-.4.4-.6.5-.3.2-.6.3-.8.5-.1.1-.4.4-.4.5l-.1.1c0 .1-.2.4-.5.7 0 0-.1.2-.3.3-.1.1-.1.4-.2.4-.3.3-.1.2-.1.3-.3.3-.1.4-.2.5-.3.3-.1.4-.2.5l-.1.3c-.3.3-.3.8-.2 1.1v.3c0 .1-.1.2 0 .3.1.1.2 1.3.3 1.2.1 0 .1.7.1.7-.1.2-.2.5-.1.7.1.4 1.5 1.4 1.3 1.7 0 0 1.9.6 1.3 1.2l2.2 1c.2.2.3.3.5.2.2.2 1.8.3 2 0 .1-.1.5-.2.6-.2 0 0 1-.2 1.1-.2.1-.1.6-.2.6-.3.3-.3.5 0 .8-.3.3-.3.5-.2.7-.4zm-9.4-10.1zm6.9 11.2c0-.1.1 0 .2 0-.1 0-.3.1-.2 0zM76.8 202c.2.3.2.5.3.7.1.1.4.6.4.6 0-.1-.1-.2.1 0 .1.2.3.3.5.6.1.1.4.1.7.5.1.2.2-.1.4.3l.7.5c.2.2.8-.3 1.1.1.1.1.3.2.4.4 0 .1.6 0 .6.1.1.2.8-.1.9.1.3.5 3.3-1.2 3.2-1.1 1.3-.5 2.4-4.6 2.4-4.7.1-.2.1-.4.1-.6 0 .1-.3-1.5-.3-1.8 0 .1-.2-.4-.3-.6-.1-.3-.1-.6-.3-.8-.1-.1-.3-.4-.3-.4 0-.1-.1-.1-.1-.1-.1-.1-.3-.3-.5-.6 0 0-.1-.1-.2-.3-.1-.1-.3-.2-.3-.2-.2-.3-.2-.1-.2-.1-.2-.3-.3-.1-.4-.3-.2-.3-.3-.2-.4-.3l-.3-.1c-.2-.3-.7-.4-.9-.4h-.3c-.1 0-.2-.1-.2-.1h-1.1c0 .1-.6-.1-.6-.1-.2-.1-.4-.3-.6-.3-.3 0-1.5 1.1-1.7.8 0 0-.8 1.5-1.3.9l-1.3 1.7c-.2.1-.4.2-.3.4-.2.2-.6 1.5-.4 1.7 0 .1 0 .5.1.6v1c.1.1.1.5.1.6.2.4-.1.4.1.8.2.2.1.3.2.5zm10.5-6.1zm-11 3.7v.2-.2z"/>
</g>
<g fill="#104785" stroke="#000" stroke-linejoin="round" stroke-miterlimit="10">
<path d="M25.2 114.2c0-.5.1-.6.1-.9v-.8c0 .1-.1.3-.1 0s-.1-.5-.1-.9c0-.1-.3-.4-.3-.9 0-.2-.2 0-.2-.5l-.4-1c0-.3-.9-.2-.9-.8 0-.2-.2-.4-.2-.6 0-.1-.5-.4-.5-.4 0-.3-.8-.4-.8-.7 0-.7-3.8-.9-3.7-.9-1.6-.3-5.1 2.9-5.2 3-.2.1-.3.3-.4.5.1-.1-.6 1.6-.8 1.9.1-.1 0 .5-.1.8-.1.3-.2.6-.2.9v.7c0 .1.1.4.1.9 0 0 .1.2.1.4s.1.4.2.4c0 .4.1.2.1.3 0 .4.2.3.2.5 0 .4.2.4.2.5l.2.3c0 .4.4.8.6 1 .1.1.2.1.2.2.1.1.1.2.2.2.2 0 1.1.7 1.1.6.1-.1.5.4.6.5.1.2.2.5.4.6.3.2 2.1-.1 2.1.3 0 0 1.7-.9 1.7-.1l2.3-.8c.3.1.5 0 .5-.2.3 0 1.5-1.1 1.5-1.4 0-.1.3-.5.3-.6l.6-.9c0-.2.3-.5.3-.6 0-.5.4-.4.3-.8-.1-.3 0-.4 0-.7zm-13.7-.5zm12.7 3.1c0-.1.1-.1.2-.2-.1.1-.2.3-.2.2zM90.4 95.8c.1-.4.3-.4.4-.7.1-.2.3-.7.2-.6-.1.1-.1.2 0 0s.1-.4.2-.8c0-.1-.1-.4 0-.8.1-.2-.2-.1 0-.5v-.9c.1-.3-.7-.5-.5-.9.1-.2 0-.4.1-.6 0-.1-.3-.5-.3-.5.1-.2-.6-.6-.5-.8.2-.5-2.8-2-2.7-2-1.2-.7-5.1.7-5.2.7-.2.1-.4.2-.5.3.1 0-1 1.1-1.2 1.3.1 0-.2.4-.3.6-.2.2-.4.4-.5.7-.1.1-.1.5-.2.5v.1c0 .1-.1.4-.2.7 0 0 0 .2-.1.4-.1.1 0 .3 0 .4-.1.3 0 .2 0 .3-.1.3.1.3 0 .5-.1.3 0 .4 0 .4s.1.3 0 .3c-.1.3.1.8.2 1 0 .1.1.2.1.2 0 .1 0 .2.1.2.1.1.6.9.7.9.1 0 .3.5.3.6 0 .2 0 .5.1.6.2.3 1.7.6 1.6 1 0 0 1.7-.2 1.4.5l2.1.1c.2.1.4.2.5 0 .3.1 1.6-.4 1.7-.7 0-.1.4-.3.4-.4l.8-.5c.1-.2.4-.3.4-.4.2-.4.4-.2.6-.6 0-.3.2-.3.3-.6zm-11-5zm9.3 6.8c0-.1.1-.1.2-.1-.1.1-.2.2-.2.1zM59.2 178.7c.3-.1.4-.1.6-.2.1-.1.5-.3.5-.2-.1 0-.2 0 0 0 .2-.1.3-.2.5-.3.1 0 .2-.3.5-.5.2-.1 0-.1.3-.3l.5-.5c.2-.1-.1-.6.2-.8l.3-.3c.1 0 .1-.4.1-.4.2-.1 0-.6.2-.7.4-.2-.6-2.7-.5-2.6-.3-1.1-3.3-2.4-3.4-2.4-.1-.1-.3-.1-.5-.1.1 0-1.2.1-1.4.1.1 0-.3.1-.5.2-.2 0-.4.1-.6.1-.1.1-.3.2-.4.2h-.1s-.2.2-.5.3c0 0-.1.1-.3.2l-.2.2c-.2.1-.1.1-.1.1-.3.1-.1.2-.3.3-.2.1-.2.2-.2.3l-.1.2c-.2.1-.4.5-.4.7 0 .1 0 .1-.1.2 0 .1-.1.1-.1.2s-.2.9-.1.9-.1.4-.1.5c-.1.1-.3.3-.3.4 0 .3.7 1.3.4 1.4 0 0 1.1.8.5 1.1l1.2 1.2c0 .2.1.3.3.2.1.2 1.1.6 1.3.5h.4l.7.1c.1-.1.4 0 .5 0 .3-.1.3.1.6 0 .3-.3.4-.2.6-.3zm-3.7-8.8zm1.7 8.9h.1c0 .1-.1.1-.1 0zM121.6 189.3c.1.4 0 .6 0 .9 0 .2.2.9.2.8 0-.1 0-.3.1 0 0 .3.2.4.3.9 0 .1.4.4.5.8 0 .2.2 0 .3.5l.5.9c.1.3.9 0 1 .6 0 .2.2.4.3.6 0 .1.6.3.6.3 0 .3.9.2.9.5.1.6 3.9.2 3.8.3 1.6 0 4.5-3.7 4.6-3.8.2-.2.3-.4.3-.6-.1.1.3-1.6.4-2 0 .1-.1-.5 0-.8 0-.3.1-.6 0-.9 0-.2-.1-.5-.1-.6v-.1c0-.1-.2-.4-.2-.8 0 0-.1-.2-.1-.4s-.2-.3-.2-.4c-.1-.4-.1-.2-.2-.2-.1-.4-.3-.3-.3-.5-.1-.4-.3-.3-.3-.4 0 0-.2-.2-.2-.3-.1-.4-.5-.7-.7-.8-.1-.1-.2-.1-.3-.1-.1-.1-.1-.2-.2-.2-.2 0-1.2-.6-1.2-.5-.1.1-.6-.3-.6-.4-.1-.2-.3-.5-.5-.5-.3-.1-2 .4-2.1 0 0 0-1.5 1.2-1.7.3l-2.1 1.2c-.3 0-.5.1-.5.3-.3.1-1.3 1.3-1.2 1.6 0 .1-.2.5-.2.6l-.4 1c0 .2-.2.6-.2.6.1.5-.3.4-.2.9 0 .3-.2.4-.1.7zm13.6-1.8c0 .1 0 .1 0 0 0 .1 0 0 0 0zm-13.1-1c0 .1-.1.1-.1.2.1-.1.1-.3.1-.2z"/>
</g>
<g fill="#75AC2D" stroke="#000" stroke-linejoin="round" stroke-miterlimit="10">
<path d="M59.7 119.6c.4-.2.5-.2.8-.4.2-.1.7-.5.7-.4-.1 0-.3.1 0-.1.2-.1.3-.3.7-.6.1-.1.2-.5.6-.7.2-.1-.1-.2.3-.4l.6-.8c.3-.2-.3-.9.2-1.2.2-.1.3-.4.4-.5.1-.1.1-.6.1-.6.2-.1-.1-.9.1-1.1.6-.3-1.2-3.7-1.1-3.7-.6-1.5-5.1-2.9-5.3-2.9-.2-.1-.4-.1-.7-.1.1 0-1.7.3-2 .3.1 0-.5.3-.7.3-.3.1-.6.1-.9.3-.1.1-.4.3-.5.4-.1 0-.1.1-.1.1-.1.1-.3.3-.7.5l-.3.3c-.1.1-.2.3-.3.3-.3.2-.1.2-.2.2-.4.2-.1.3-.3.5-.3.2-.2.4-.3.4 0 0-.1.3-.2.3-.3.2-.5.7-.5 1v.3c0 .1-.1.2-.1.3 0 .2-.1 1.3 0 1.3s-.1.7-.1.7c-.1.2-.3.5-.3.7 0 .4 1.1 1.7.8 1.9 0 0 1.7 1 .9 1.5l1.9 1.6c.1.3.2.4.5.3.2.2 1.7.7 2 .5.1 0 .6 0 .6-.1 0 0 1 .1 1.1 0 .2-.1.6-.1.7-.1.4-.2.5.1.9-.1.3-.1.4 0 .7-.2zm-6.7-12c.1 0 .1 0 0 0 .1 0 .1 0 0 0zm3.9 12.5h.2c0 .1-.2.1-.2 0zM116 111.5c.1-.3.3-.4.3-.6.1-.1.2-.6.2-.6 0 .1-.1.2 0 0s.1-.4.2-.7c0-.1-.1-.4 0-.7.1-.2-.1-.1 0-.4v-.8c.1-.2-.6-.4-.4-.8.1-.1 0-.4.1-.5 0-.1-.3-.4-.3-.4.1-.2-.5-.5-.4-.7.2-.5-2.5-1.7-2.4-1.8-1-.7-4.5.6-4.6.6-.2 0-.3.1-.5.2.1 0-.9 1-1.1 1.1.1 0-.2.4-.3.5-.1.2-.3.4-.4.6 0 .1-.1.4-.2.5v.1c0 .1 0 .3-.2.6 0 0 0 .2-.1.3v.3c-.1.3 0 .2 0 .2-.1.3.1.3 0 .4-.1.3 0 .3 0 .4v.3c-.1.3.1.7.1.9 0 .1.1.1.1.2s0 .2.1.2c.1.1.5.8.6.8s.2.4.3.5c0 .2 0 .4.1.6.2.2 1.5.5 1.4.8 0 0 1.5-.1 1.3.5l1.9.1c.2.1.3.2.4 0 .2.1 1.4-.4 1.5-.6 0-.1.3-.3.4-.3 0 0 .7-.4.7-.5l.4-.4c.1-.3.4-.2.5-.5 0-.1.2-.1.3-.4zm-9.7-4.4zm8.2 6c0-.1.1-.1.2-.1-.1.1-.3.2-.2.1zM125 162.5c.2-.4.3-.4.4-.6.1-.1.3-.7.3-.6-.1.1-.1.2 0 0s.1-.4.2-.7c0-.1-.1-.4 0-.8.1-.2-.1-.1 0-.5l.1-.9c.1-.2-.6-.5-.5-.9.1-.2 0-.4.1-.5 0-.1-.3-.5-.3-.5.1-.2-.5-.6-.4-.8.2-.5-2.7-2-2.6-2-1.1-.8-5 .5-5.1.5-.2 0-.4.1-.5.3.1 0-1 1-1.2 1.2.1 0-.2.4-.3.6-.2.2-.4.4-.5.6-.1.1-.2.4-.2.5v.1c0 .1-.1.4-.2.7 0 0 0 .2-.1.4-.1.1 0 .3 0 .4-.1.3 0 .2 0 .2-.1.3.1.3 0 .5-.1.3 0 .4 0 .4v.3c-.1.3 0 .7.1.9 0 .1.1.2.1.2 0 .1 0 .2.1.2.1.1.6.9.6.9s.3.5.3.6c0 .2 0 .5.1.6.2.3 1.6.7 1.5 1 0 0 1.6-.1 1.4.6l2.1.2c.2.1.4.2.5 0 .3.1 1.5-.3 1.6-.6 0-.1.4-.3.4-.4l.8-.5c.1-.2.4-.3.4-.4.2-.4.4-.2.6-.5-.1-.4.1-.4.2-.7zm-10.5-5.1c0-.1 0-.1 0 0zm8.8 6.8c0-.1.1-.1.2-.1-.1.1-.2.2-.2.1zM28.7 156.6c.4-.2.6-.1.9-.3.2-.1.8-.4.7-.4-.1 0-.3.1 0-.1.2-.1.4-.3.8-.5.1-.1.2-.5.7-.7.2-.1-.1-.2.4-.4l.7-.7c.3-.1-.2-.9.3-1.2.2-.1.3-.3.5-.4.1 0 .1-.6.1-.6.2-.1 0-.9.2-1 .6-.3-.8-3.8-.7-3.8-.4-1.5-4.8-3.4-4.9-3.5-.2-.1-.4-.2-.7-.2.1 0-1.7.1-2 .1.1 0-.5.2-.8.3-.3.1-.6.1-.9.2-.2.1-.5.3-.6.3-.1 0-.1.1-.1.1-.1 0-.3.3-.7.5l-.4.2c-.2.1-.3.3-.3.3-.3.2-.1.2-.2.2-.4.2-.2.3-.4.4-.4.2-.3.3-.3.4l-.2.3c-.3.2-.5.7-.6.9 0 .1 0 .2-.1.3 0 .1-.2.2-.1.3 0 .2-.2 1.3-.1 1.3s-.2.6-.2.7c-.1.2-.4.4-.4.6 0 .4.9 1.9.6 2 0 0 1.5 1.2.8 1.6l1.7 1.7c.1.3.2.4.4.4.2.3 1.6.9 1.9.7h.6s1 .2 1.1.2c.2-.1.6 0 .7 0 .4-.2.5.2.9 0 .3-.2.4 0 .7-.2zm-5.3-12.7s.1 0 0 0zm2.5 12.9c.1 0 .1 0 .2.1-.1-.1-.3-.1-.2-.1zM33.8 200.9c.2.3.2.4.3.6.1.1.4.5.4.5 0-.1-.1-.2 0 0s.3.2.5.5c.1.1.4.1.6.4.1.1.1-.1.3.2l.6.4c.1.2.6-.3.9 0 .1.1.3.2.4.3 0 .1.5 0 .5 0 .1.2.7-.2.8 0 .3.4 2.7-1.2 2.6-1.2 1.1-.6 1.7-4 1.7-4.2v-.5c0 .1-.4-1.2-.4-1.5 0 .1-.2-.3-.3-.5-.1-.2-.2-.5-.3-.6-.1-.1-.3-.3-.3-.4 0-.1-.1-.1-.1-.1l-.5-.5-.2-.2c-.1-.1-.3-.1-.3-.2-.2-.2-.2-.1-.2-.1-.2-.2-.3-.1-.4-.2-.2-.2-.3-.1-.3-.2l-.2-.1c-.2-.2-.6-.3-.8-.3h-.2c-.1 0-.1-.1-.2-.1s-1 0-1 .1-.5 0-.5 0c-.1-.1-.4-.2-.5-.2-.3 0-1.2 1-1.4.8 0 0-.6 1.3-1 .8l-1 1.5c-.2.1-.3.2-.2.4-.2.2-.4 1.3-.2 1.5 0 0 .1.4.1.5 0 0 0 .8.1.8.1.1.1.4.1.5.2.3 0 .4.2.6.3.4.3.5.4.7zm8.4-5.9zm-9 3.9v.2-.2zM98.4 214.7c.1.4 0 .5 0 .7 0 .2.1.7.1.6 0-.1 0-.2.1 0 0 .2.2.4.2.7 0 .1.3.3.4.7 0 .2.2 0 .2.4l.4.7c0 .3.8 0 .9.5 0 .2.2.3.2.5 0 .1.5.2.5.3 0 .2.7.2.8.4.1.5 3.3.2 3.2.2 1.3 0 3.8-3.1 3.9-3.2.1-.1.2-.3.3-.5 0 .1.3-1.4.4-1.6 0 .1-.1-.4 0-.7 0-.3.1-.5 0-.8 0-.1-.1-.4-.1-.5v-.1c0-.1-.1-.3-.2-.7 0 0-.1-.2-.1-.4 0-.1-.2-.3-.2-.3-.1-.3-.1-.2-.1-.2-.1-.3-.2-.2-.3-.4-.1-.3-.2-.3-.2-.4l-.2-.2c-.1-.3-.4-.6-.6-.7-.1 0-.2-.1-.2-.1-.1-.1-.1-.2-.2-.2s-1-.5-1-.4-.5-.3-.5-.3c-.1-.1-.3-.4-.4-.5-.3-.1-1.7.4-1.8 0 0 0-1.3 1-1.4.3l-1.8 1c-.2 0-.4 0-.4.3-.2.1-1.1 1.1-1 1.4 0 .1-.2.5-.1.5l-.4.8c0 .2-.1.5-.1.5.1.4-.2.4-.2.7 0 .6-.1.7-.1 1zm11.4-1.5zm-10.9-.8c0 .1 0 .1-.1.2 0-.1.1-.3.1-.2zM85.3 62.9c0-.5.1-.6.1-.9v-.8c0 .1-.1.3-.1 0s-.1-.5-.1-.9c0-.1-.3-.4-.3-.9 0-.2-.2 0-.2-.5l-.4-1c0-.3-.9-.2-.9-.8 0-.2-.2-.4-.2-.6 0-.1-.5-.4-.5-.4 0-.3-.8-.4-.8-.7 0-.7-3.8-.9-3.7-.9-1.6-.3-5.1 2.9-5.2 3-.2.1-.3.3-.4.5.1-.1-.6 1.6-.8 1.9.1-.1 0 .5-.1.8-.1.3-.2.6-.2.9v.7c0 .1.1.4.1.9 0 0 .1.2.1.4s.1.4.2.4c0 .4.1.2.1.3 0 .4.2.3.2.5 0 .4.2.4.2.5l.2.3c0 .4.4.8.6 1 .1.1.2.1.2.2.1.1.1.2.2.2.2 0 1.1.7 1.1.6.1-.1.5.4.6.5.1.2.2.5.4.6.3.2 2.1-.1 2.1.3 0 0 1.7-.9 1.7-.1l2.3-.8c.3.1.5 0 .5-.2.3 0 1.5-1.1 1.5-1.4 0-.1.3-.5.3-.6l.6-.9c0-.2.3-.5.3-.6 0-.5.4-.4.3-.8-.2-.3 0-.4 0-.7zm-13.8-.4s0-.1 0 0zm12.8 3c0-.1.1-.1.2-.2-.1.2-.2.3-.2.2z"/>
</g>
</g>

<text class="txt-20" transform="translate(26.655 22.97)">Knowledge:</text>

</svg>