<svg version="1.1" xmlns="http://www.w3.org/2000/svg" x="0px" y="0px" viewBox="0 0 1864 1375" enable-background="new 0 0 1864 1375" xml:space="preserve">
<defs>
<style type="text/css">
@font-face {
    font-family: "RobotoFlex Regular";
    src: url("https://pixelambacht.nl/remote/RobotoFlex[slnt,wdth,wght,opsz].woff2");
    font-display:swap;
    text-align: initial;
    font-variation-settings: "wght" 400, "wdth" 100, "opsz" 14, "GRAD" 0, "slnt" 0, "XTRA" 468, "XOPQ" 96, "YOPQ" 79, "YTLC" 514, "YTUC" 712, "YTAS" 750, "YTDE" -203, "YTFI" 738;
    font-weight: 100 1000;
    font-stretch: 25% 151%;
}

@font-face {
    font-family:zilla-slab;
    src:url('https://s3.amazonaws.com/benetta.net/fonts/zilla-slab/zilla-slab-v6-latin-500.woff2') format('woff2');
    font-display:swap;
    text-align: initial;
    font-style:normal;
    font-weight:500;
}

@font-face {
    font-family: AmstelvarAlpha-VF;
    src: url("https://s3.amazonaws.com/benetta.net/fonts/amstelvar-woff2/AmstelvarAlpha-VF.woff2") format("woff2-variations");
    font-display: swap;
    text-align: initial;
    font-style: normal;
    font-weight: 300 900;
    font-stretch: 35% 100%;
    unicode-range: U+0020-007E, U+4E00, U+4E2A, U+4E45, U+4EE5, U+524D,
        U+5728, U+5927, U+5F81, U+5F88, U+6211, U+661F, U+662F, U+6D77,
        U+7684, U+7CFB, U+8FB0, U+8FDC, U+9014, U+9065;
}

.rfr {
    font-family: "RobotoFlex Regular";
    font-variation-settings: "GRAD" 1;
}

.zs1 {
    font-family: zilla-slab;
}

.aav {
    font-family: AmstelvarAlpha-VF;
    font-weight: 500;
    color: #fff;
    border: none;
}

.fff {
    fill: #fff;
}

</style>
</defs>
<circle fill="#4992FF" stroke="#231F20" stroke-width="2" stroke-miterlimit="10" cx="710.1" cy="483" r="109.3"/>
<circle fill="#92B655" stroke="#231F20" stroke-width="2" stroke-miterlimit="10" cx="943.2" cy="406.9" r="77"/>
<circle fill="#DB4955" stroke="#231F20" stroke-width="2" stroke-miterlimit="10" cx="708.1" cy="239" r="77"/>
<circle fill="#FF9200" stroke="#231F20" stroke-width="2" stroke-miterlimit="10" cx="475.9" cy="406.9" r="77"/>
<circle fill="#49B6FF" stroke="#231F20" stroke-width="2" stroke-miterlimit="10" cx="566.5" cy="680" r="77"/>
<circle fill="#6D49AA" stroke="#231F20" stroke-width="2" stroke-miterlimit="10" cx="852.7" cy="680" r="77"/>
<path   fill="#92B655" stroke="#231F20" stroke-width="2" stroke-miterlimit="10" d="M936.3,491.5c-1.7,43.1-15.4,83.2-37.8,116.9 c5.7,3.7,11,8,15.6,12.9c26-38.4,40.7-83.3,42.2-130.5c-4.3,0.7-8.7,1-13.2,1C940.9,491.9,938.6,491.7,936.3,491.5z"/>
<path   fill="#FF9200" stroke="#231F20" stroke-width="2" stroke-miterlimit="10" d="M628.4,268.6c-2.3-6.3-3.9-12.9-4.7-19.7 c-33.9,12.2-65,31.9-91.2,58.1c-7.3,7.3-14.1,15-20.4,23c6.2,2.9,11.9,6.5,17.1,10.8C555,308.5,589.1,283.3,628.4,268.6z"/>
<path   fill="#49B6FF" stroke="#231F20" stroke-width="2" stroke-miterlimit="10" d="M518.6,609.8c-22.9-34-36.9-74.5-38.6-118.1 c-1.3,0.1-2.7,0.1-4.1,0.1c-5.5,0-10.8-0.5-16-1.5c1.5,48.1,16.6,93.9,43.4,132.8C507.9,618.1,513,613.6,518.6,609.8z"/>
<path   fill="#6D49AA" stroke="#231F20" stroke-width="2" stroke-miterlimit="10" d="M778.2,721c-3.2-5.9-5.8-12.1-7.5-18.7 c-19.9,5.7-40.8,8.7-62.5,8.7c-20.7,0-40.7-2.8-59.8-8c-1.8,6.6-4.5,12.9-7.7,18.7c21.7,6.1,44.4,9.3,67.6,9.3 C732.2,730.9,755.7,727.5,778.2,721z"/>
<path   fill="#DB4955" stroke="#231F20" stroke-width="2" stroke-miterlimit="10" d="M883.7,307c-26.2-26.2-57.3-45.9-91.2-58.1 c-0.8,6.9-2.4,13.5-4.7,19.7c39.9,14.9,74.5,40.6,100.3,73.6c5.1-4.4,10.7-8.1,16.8-11.2C898.4,322.6,891.4,314.6,883.7,307z"/>

<text class="zs1"     transform="matrix(1 0 0 1 640 72.0042)"       font-size="5.0em" letter-spacing="1">IDE</text>
<text class="rfr"     transform="matrix(1 0 0 1 340 126.6667)"      font-size="3.0em">(Integrated Development Environment)</text>
<text class="aav fff" transform="matrix(1 0 0 1 666 242.6665)"      font-size="2.0em">Write</text>
<text class="aav fff" transform="matrix(1 0 0 1 895 413.9998)"      font-size="2.0em">Debug</text>
<text class="aav fff" transform="matrix(1 0 0 1 410 413.9998)"      font-size="1.6em">Document</text>
<text class="aav fff" transform="matrix(1 0 0 1 533 687.5)"         font-size="2.0em">Run</text>
<text class="aav fff" transform="matrix(1 0 0 1 780 687.5)"         font-size="2.0em">Translate</text>
<text class="zs1 fff" transform="matrix(1 0 0 1 644 505)"           font-size="5.2em">IDE</text>

</svg>
