<svg version="1.1" xmlns="http://www.w3.org/2000/svg" xmlns:xlink="http://www.w3.org/1999/xlink" x="0px" y="0px" viewBox="0 0 1864 1375" enable-background="new 0 0 1864 1375" xml:space="preserve">
<g id="Layer_1">
	<path pointer-events="stroke" fill="none" stroke="#000000" stroke-miterlimit="10" d="M594.6,1053L746,1055"/>
	<path pointer-events="all" stroke="#000000" stroke-miterlimit="10" d="M750.6,1055l-6.3,3.1l1.6-3.1l-1.5-3.1L750.6,1055z"/>
	<path pointer-events="stroke" fill="none" stroke="#000000" stroke-miterlimit="10" d="M504,1018.7L373.1,905.1"/>
	<path pointer-events="all" stroke="#000000" stroke-miterlimit="10" d="M369.6,902l6.8,1.8l-3.2,1.3l-0.9,3.4L369.6,902z"/>
	<path pointer-events="stroke" fill="none" stroke="#000000" stroke-miterlimit="10" d="M491.4,1052.5H383.8"/>
	<path pointer-events="all" stroke="#000000" stroke-miterlimit="10" d="M379.2,1052.5l6.3-3.1l-1.6,3.1l1.6,3.1L379.2,1052.5z"/>
	<path pointer-events="stroke" fill="none" stroke="#000000" stroke-miterlimit="10" d="M850.2,1035.6l169.2-71.6"/>
	<path pointer-events="all" stroke="#000000" stroke-miterlimit="10" d="M1023.7,962.1l-4.5,5.3l0.2-3.5l-2.7-2.3L1023.7,962.1z"/>
	<path pointer-events="stroke" fill="none" stroke="#000000" stroke-miterlimit="10" d="M1068.5,878.9l-0.6-129.4"/>
	<path pointer-events="all" stroke="#000000" stroke-miterlimit="10" d="M1067.9,744.8l3.2,6.2l-3.1-1.5l-3.1,1.6L1067.9,744.8z"/>
	<path pointer-events="stroke" fill="none" stroke="#000000" stroke-miterlimit="10" d="M1119.1,920l225.5-46.8"/>
	<path pointer-events="all" stroke="#000000" stroke-miterlimit="10" d="M1349.2,872.2l-5.5,4.3l0.9-3.4l-2.2-2.8L1349.2,872.2z"/>
	<path pointer-events="stroke" fill="none" stroke="#000000" stroke-miterlimit="10" d="M1114.5,716.2l232.3,118.3"/>
	<path pointer-events="all" stroke="#000000" stroke-miterlimit="10" d="M1351,836.7l-7-0.1l2.8-2.1l0-3.5L1351,836.7z"/>
	<path pointer-events="stroke" fill="none" stroke="#000000" stroke-miterlimit="10" d="M1117.7,676.9l431.8-138.9"/>
	<path pointer-events="all" stroke="#000000" stroke-miterlimit="10" d="M1553.9,536.6l-5,4.9l0.5-3.5l-2.4-2.5L1553.9,536.6z"/>
	<path pointer-events="stroke" fill="none" stroke="#000000" stroke-miterlimit="10" d="M1017.2,697.8l-414.3,52.3"/>
	<path pointer-events="all" stroke="#000000" stroke-miterlimit="10" d="M598.2,750.8l5.8-3.9l-1.2,3.3l1.9,2.9L598.2,750.8z"/>
	<path pointer-events="stroke" fill="none" stroke="#000000" stroke-miterlimit="10" d="M1068.5,641.2l-0.6-132.6"/>
	<path pointer-events="all" stroke="#000000" stroke-miterlimit="10" d="M1068,503.9l3.2,6.2l-3.2-1.5l-3.1,1.6L1068,503.9z"/>
	<path pointer-events="stroke" fill="none" stroke="#000000" stroke-miterlimit="10" d="M1091.4,646.5l99-200.1"/>
	<path pointer-events="all" stroke="#000000" stroke-miterlimit="10" d="M1192.5,442.2l0,7l-2.1-2.8h-3.5L1192.5,442.2z"/>
	<path pointer-events="stroke" fill="none" stroke="#000000" stroke-miterlimit="10" d="M1018.7,679.2L572.7,557.5"/>
	<path pointer-events="all" stroke="#000000" stroke-miterlimit="10" d="M568.1,556.3l6.9-1.4l-2.3,2.6l0.7,3.4L568.1,556.3z"/>
	<path pointer-events="stroke" fill="none" stroke="#000000" stroke-miterlimit="10" d="M1021.3,671.9L342.5,372.3"/>
	<path pointer-events="all" stroke="#000000" stroke-miterlimit="10" d="M338.2,370.4l7-0.3l-2.7,2.3l0.2,3.5L338.2,370.4z"/>
	<path pointer-events="stroke" fill="none" stroke="#000000" stroke-miterlimit="10" d="M1017.1,688.5l-264.3-22.3"/>
	<path pointer-events="all" stroke="#000000" stroke-miterlimit="10" d="M748.1,665.7l6.5-2.6l-1.8,3l1.3,3.3L748.1,665.7z"/>
	<path pointer-events="stroke" fill="none" stroke="#000000" stroke-miterlimit="10" d="M1026.6,662.7L583.4,344.6"/>
	<path pointer-events="all" stroke="#000000" stroke-width="2" stroke-miterlimit="10" d="M581.5,343.2l3.4,0.6l-1.5,0.8l-0.3,1.7
		L581.5,343.2z"/>
	<path pointer-events="stroke" fill="none" stroke="#000000" stroke-miterlimit="10" d="M365,829.7l427.5-471.2"/>
	<path pointer-events="all" stroke="#000000" stroke-miterlimit="10" d="M795.6,355l-1.9,6.8l-1.3-3.3l-3.3-0.9L795.6,355z"/>
	<path pointer-events="stroke" fill="none" stroke="#000000" stroke-miterlimit="10" d="M810.6,372.3L578.5,705.7"/>
	<path pointer-events="all" stroke="#000000" stroke-miterlimit="10" d="M575.8,709.5l1-6.9l1.7,3.1l3.5,0.5L575.8,709.5z"/>
	<path pointer-events="stroke" fill="none" stroke="#000000" stroke-miterlimit="10" d="M506.6,719L333,572.8"/>
	<path pointer-events="all" stroke="#000000" stroke-miterlimit="10" d="M329.4,569.8l6.8,1.6l-3.2,1.4l-0.8,3.4L329.4,569.8z"/>
	<path pointer-events="stroke" fill="none" stroke="#000000" stroke-miterlimit="10" d="M288.8,484.8l-1.3-72.4"/>
	<path pointer-events="all" stroke="#000000" stroke-width="2" stroke-miterlimit="10" d="M287.4,410.1l1.6,3.1l-1.6-0.8l-1.6,0.8
		L287.4,410.1z"/>
	<path pointer-events="stroke" fill="none" stroke="#000000" stroke-miterlimit="10" d="M286.5,307v-86.2"/>
	<path pointer-events="all" stroke="#000000" stroke-miterlimit="10" d="M286.5,216.1l3.1,6.3l-3.1-1.6l-3.1,1.6L286.5,216.1z"/>
	<path pointer-events="stroke" fill="none" stroke="#000000" stroke-miterlimit="10" d="M722.6,895.1l-138.8,117.5"/>
	<path pointer-events="all" stroke="#000000" stroke-miterlimit="10" d="M580.2,1015.6l2.8-6.4l0.8,3.4l3.2,1.4L580.2,1015.6z"/>
	<path pointer-events="stroke" fill="none" stroke="#000000" stroke-miterlimit="10" d="M715.9,838.4l-119.2-60.6"/>
	<path pointer-events="all" stroke="#000000" stroke-miterlimit="10" d="M592.5,775.7l7,0.1l-2.8,2.1l0,3.5L592.5,775.7z"/>
	<path pointer-events="stroke" fill="none" stroke="#000000" stroke-miterlimit="10" d="M811.8,875.1l197.2,53.3"/>
	<path pointer-events="all" stroke="#000000" stroke-miterlimit="10" d="M1013.5,929.6l-6.9,1.4l2.3-2.6l-0.7-3.4L1013.5,929.6z"/>
	<path pointer-events="stroke" fill="none" stroke="#000000" stroke-miterlimit="10" d="M808.3,839l218.6-107.2"/>
	<path pointer-events="all" stroke="#000000" stroke-miterlimit="10" d="M1031.1,729.7l-4.3,5.6l0-3.5l-2.8-2.1L1031.1,729.7z"/>
	<path pointer-events="stroke" fill="none" stroke="#000000" stroke-miterlimit="10" d="M1021.4,430.9l-137.2-61.2"/>
	<path pointer-events="all" stroke="#000000" stroke-miterlimit="10" d="M879.9,367.8l7-0.3l-2.7,2.2l0.2,3.5L879.9,367.8z"/>
	<path pointer-events="stroke" fill="none" stroke="#000000" stroke-miterlimit="10" d="M1164.7,386.8L896,339.7"/>
	<path pointer-events="all" stroke="#000000" stroke-miterlimit="10" d="M891.4,338.9l6.7-2l-2.1,2.8l1,3.3L891.4,338.9z"/>
	<path pointer-events="stroke" fill="none" stroke="#000000" stroke-miterlimit="10" d="M477.1,511.1L329.5,396.4"/>
	<path pointer-events="all" stroke="#000000" stroke-miterlimit="10" d="M325.8,393.6l6.9,1.4l-3.1,1.5l-0.7,3.4L325.8,393.6z"/>
	<path pointer-events="stroke" fill="none" stroke="#000000" stroke-miterlimit="10" d="M1358.9,312.6L875.6,168.4"/>
	<path pointer-events="all" stroke="#000000" stroke-miterlimit="10" d="M871,167l6.9-1.2l-2.4,2.5l0.6,3.4L871,167z"/>
	<path pointer-events="stroke" fill="none" stroke="#000000" stroke-miterlimit="10" d="M1443.8,368.6l118.7,113"/>
	<path pointer-events="all" stroke="#000000" stroke-miterlimit="10" d="M1565.8,484.8l-6.7-2l3.3-1.2l1-3.3L1565.8,484.8z"/>
	<path pointer-events="stroke" fill="none" stroke="#000000" stroke-miterlimit="10" d="M1372.9,372.1l-253.3,296.8"/>
	<path pointer-events="all" stroke="#000000" stroke-miterlimit="10" d="M1116.6,672.5l1.7-6.8l1.4,3.2l3.4,0.8L1116.6,672.5z"/>
	<path pointer-events="stroke" fill="none" stroke="#000000" stroke-miterlimit="10" d="M1369.2,297.3l-94-90.7"/>
	<path pointer-events="all" stroke="#000000" stroke-miterlimit="10" d="M1271.8,203.3l6.7,2.1l-3.3,1.2l-1.1,3.3L1271.8,203.3z"/>
	<path pointer-events="stroke" fill="none" stroke="#000000" stroke-miterlimit="10" d="M1355.4,325L346.2,165.4"/>
	<path pointer-events="all" stroke="#000000" stroke-miterlimit="10" d="M341.6,164.7l6.7-2.1l-2,2.8l1,3.3L341.6,164.7z"/>
	<path pointer-events="stroke" fill="none" stroke="#000000" stroke-miterlimit="10" d="M1441.5,295.3l85.4-91.8"/>
	<path pointer-events="all" stroke="#000000" stroke-miterlimit="10" d="M1530.1,200.1l-2,6.7l-1.2-3.3l-3.3-1L1530.1,200.1z"/>
	<path pointer-events="stroke" fill="none" stroke="#000000" stroke-miterlimit="10" d="M799.3,198.3L563,697.3"/>
	<path pointer-events="all" stroke="#000000" stroke-miterlimit="10" d="M561,701.6l-0.2-7l2.2,2.8l3.5-0.1L561,701.6z"/>
	<path pointer-events="stroke" fill="none" stroke="#000000" stroke-miterlimit="10" d="M1182.7,165.3l-304.7-11.6"/>
	<path pointer-events="all" stroke="#000000" stroke-miterlimit="10" d="M873.4,153.6l6.4-2.9l-1.7,3.1l1.4,3.2L873.4,153.6z"/>
	<path pointer-events="stroke" fill="none" stroke="#000000" stroke-miterlimit="10" d="M494.5,285.9L338.9,193"/>
	<path pointer-events="all" stroke="#000000" stroke-miterlimit="10" d="M334.8,190.6l7,0.5l-2.9,1.9l-0.3,3.5L334.8,190.6z"/>
	<ellipse pointer-events="all" fill="#FCEE21" stroke="#000000" cx="1068.5" cy="930.5" rx="51.6" ry="51.6"/>
	
		<ellipse pointer-events="all" fill="#B3B3B3" stroke="#000000" stroke-miterlimit="10" cx="1068.5" cy="692.8" rx="51.6" ry="51.6"/>
	<ellipse pointer-events="all" fill="#C7B299" stroke="#000000" cx="1399.1" cy="857.7" rx="51.6" ry="51.6"/>
	<ellipse pointer-events="all" fill="#8CC63F" stroke="#000000" cx="543" cy="1052.5" rx="51.6" ry="51.6"/>
	<ellipse pointer-events="all" fill="#8CC63F" stroke="#000000" cx="327.2" cy="1052.5" rx="51.6" ry="51.6"/>
	<ellipse pointer-events="all" fill="#8CC63F" stroke="#000000" cx="802.6" cy="1055.6" rx="51.6" ry="51.6"/>
	<ellipse pointer-events="all" fill="#8CC63F" stroke="#000000" cx="330.3" cy="867.9" rx="51.6" ry="51.6"/>
	<ellipse pointer-events="all" fill="#8CC63F" stroke="#000000" cx="762" cy="861.7" rx="51.6" ry="51.6"/>
	
		<ellipse pointer-events="all" fill="#FF7BAC" stroke="#000000" stroke-miterlimit="10" cx="1068.5" cy="451.9" rx="51.6" ry="51.6"/>
	
		<ellipse pointer-events="all" fill="#FF7BAC" stroke="#000000" stroke-miterlimit="10" cx="1215.5" cy="395.6" rx="51.6" ry="51.6"/>
	<ellipse pointer-events="all" fill="#00FFFF" stroke="#000000" cx="1406.4" cy="333" rx="51.6" ry="51.6"/>
	<ellipse pointer-events="all" fill="#00FFFF" stroke="#000000" cx="1567" cy="163" rx="51.6" ry="51.6"/>
	<ellipse pointer-events="all" fill="#00FFFF" stroke="#000000" cx="1603.4" cy="520.7" rx="51.6" ry="51.6"/>
	<ellipse pointer-events="all" fill="#00FFFF" stroke="#000000" cx="1234.3" cy="167.3" rx="51.6" ry="51.6"/>
	<ellipse pointer-events="all" fill="#FBB03B" stroke="#000000" cx="546.1" cy="752.2" rx="51.6" ry="51.6"/>
	<ellipse pointer-events="all" fill="#FBB03B" stroke="#000000" cx="289.6" cy="536.4" rx="51.6" ry="51.6"/>
	<ellipse pointer-events="all" fill="#FBB03B" stroke="#000000" cx="289.5" cy="356.9" rx="51.6" ry="51.6"/>
	<ellipse pointer-events="all" fill="#FBB03B" stroke="#000000" cx="289.5" cy="165.1" rx="51.6" ry="51.6"/>
	<ellipse pointer-events="all" fill="#FBB03B" stroke="#000000" cx="518" cy="542.6" rx="51.6" ry="51.6"/>
	<ellipse pointer-events="all" fill="#FBB03B" stroke="#000000" cx="696.3" cy="661.5" rx="51.6" ry="51.6"/>
	<ellipse pointer-events="all" fill="#FBB03B" stroke="#000000" cx="537.7" cy="314.1" rx="51.6" ry="51.6"/>
	
		<ellipse pointer-events="all" fill="#3FA9F5" stroke="#000000" stroke-miterlimit="10" cx="821.4" cy="151.6" rx="51.6" ry="51.6"/>
	
		<ellipse pointer-events="all" fill="#3FA9F5" stroke="#000000" stroke-miterlimit="10" cx="841.2" cy="332.9" rx="51.6" ry="51.6"/>
	<text transform="matrix(1 0 0 1 221.1425 270)" font-family="'MyriadPro-Regular'" font-size="19">containedlnPlace</text>
	<text transform="matrix(1 0 0 1 223.8091 460.6667)" font-family="'MyriadPro-Regular'" font-size="19">containedlnPlace</text>
	<text transform="matrix(1 0 0 1 613.4408 1050.3334)" font-family="'MyriadPro-Regular'" font-size="19">associatedWith</text>
	<text transform="matrix(0.756 0.6546 -0.6546 0.756 405.8925 922.4151)" font-family="'MyriadPro-Regular'" font-size="19">associatedWith</text>
	<text transform="matrix(0.7663 -0.6425 0.6425 0.7663 604.4146 987.4692)" font-family="'MyriadPro-Regular'" font-size="19">associatedWith</text>
	<text transform="matrix(0.8927 0.4507 -0.4507 0.8927 606.7006 777.6449)" font-family="'MyriadPro-Regular'" font-size="19">associatedWith</text>
	<text transform="matrix(0.6761 -0.7368 0.7368 0.6761 380.1618 807.0472)" font-family="'MyriadPro-Regular'" font-size="19">associatedWith</text>
	<text transform="matrix(0.898 -0.4399 0.4399 0.898 843.3729 817.1271)" font-family="'MyriadPro-Regular'" font-size="19">associatedWith</text>
	<text transform="matrix(0.9644 0.2644 -0.2644 0.9644 859.1273 880.6265)" font-family="'MyriadPro-Regular'" font-size="19">associatedWith</text>
	<text transform="matrix(0.9211 -0.3893 0.3893 0.9211 872.743 1018.3618)" font-family="'MyriadPro-Regular'" font-size="19">associatedWith</text>
	<text transform="matrix(0.9802 -0.198 0.198 0.9802 1182.9651 899.9059)" font-family="'MyriadPro-Regular'" font-size="19">associatedWith</text>
	<text transform="matrix(0.4297 -0.9029 0.9029 0.4297 707.4559 378.1596)" font-family="'MyriadPro-Regular'" font-size="19">containedlnPlace</text>
	<text transform="matrix(0.9093 0.416 -0.416 0.9093 896.282 368.9866)" font-family="'MyriadPro-Regular'" font-size="19">containedlnPlace</text>
	<text transform="matrix(0.5721 -0.8202 0.8202 0.5721 716.6068 501.6381)" font-family="'MyriadPro-Regular'" font-size="19">containedlnPlace</text>
	<text transform="matrix(0.7927 0.6096 -0.6096 0.7927 355.9905 408.6305)" font-family="'MyriadPro-Regular'" font-size="19">containedlnPlace</text>
	<text transform="matrix(0.836 0.5488 -0.5488 0.836 369.1055 200.257)" font-family="'MyriadPro-Regular'" font-size="19">containedlnPlace</text>
	<text transform="matrix(0.761 0.6487 -0.6487 0.761 361.7604 586.5765)" font-family="'MyriadPro-Regular'" font-size="19">containedlnPlace</text>
	<text transform="matrix(0.8991 0.4378 -0.4378 0.8991 375.2773 378.3274)" font-family="'MyriadPro-Regular'" font-size="19">isSeenlnState</text>
	<text transform="matrix(1 0 0 1 395.7417 1046)" font-family="'MyriadPro-Regular'" font-size="19">deliveredBy</text>
	
		<text transform="matrix(1.431000e-002 -0.9999 0.9999 1.431000e-002 1060.0516 636.5552)" font-family="'MyriadPro-Regular'" font-size="19">isSeenlnZone</text>
	<text transform="matrix(0.9908 -0.1351 0.1351 0.9908 767.9144 725.4264)" font-family="'MyriadPro-Regular'" font-size="19">isSeenln</text>
	
		<text transform="matrix(0.9962 8.761000e-002 -8.761000e-002 0.9962 812.1439 665.4881)" font-family="'MyriadPro-Regular'" font-size="19">isSeenln</text>
	<text transform="matrix(0.9641 0.2657 -0.2657 0.9641 764.5779 603.3364)" font-family="'MyriadPro-Regular'" font-size="19">isSeenInDistrict</text>
	<text transform="matrix(0.8087 0.5882 -0.5882 0.8087 823.3388 508.1156)" font-family="'MyriadPro-Regular'" font-size="19">isSeenlnPostalCode</text>
	<text transform="matrix(0 -1 1 0 1060.8271 873.8271)" font-family="'MyriadPro-Regular'" font-size="19">islnstalledOn</text>
	<text transform="matrix(0.9815 0.1913 -0.1913 0.9815 988.9802 348.5726)" font-family="'MyriadPro-Regular'" font-size="19">islnstalledln</text>
	<text transform="matrix(0.8932 0.4496 -0.4496 0.8932 1197.7488 752.1693)" font-family="'MyriadPro-Regular'" font-size="19">belongsTo</text>
	<text transform="matrix(0.988 0.1543 -0.1543 0.988 892.8782 245.3836)" font-family="'MyriadPro-Regular'" font-size="19">bornln / nationalOf / residentOf</text>
	<text transform="matrix(1 0 0 1 1006.6448 151.6135)" font-family="'MyriadPro-Regular'" font-size="19">residesAt</text>
	<text transform="matrix(0.9633 0.2683 -0.2683 0.9633 1083.6503 224.9146)" font-family="'MyriadPro-Regular'" font-size="19">residesAt</text>
	<text transform="matrix(0.7071 0.7071 -0.7071 0.7071 1303.6205 221.4085)" font-family="'MyriadPro-Regular'" font-size="19">memberOf</text>
	<text transform="matrix(0.6876 -0.7261 0.7261 0.6876 1438.3708 289.2606)" font-family="'MyriadPro-Regular'" font-size="19">holdsAccount</text>
	<text transform="matrix(0.4426 -0.8967 0.8967 0.4426 1102.9728 610.8557)" font-family="'MyriadPro-Regular'" font-size="19">isConnectedTo</text>
	<text transform="matrix(0.679 -0.7341 0.7341 0.679 1196.1718 564.9581)" font-family="'MyriadPro-Regular'" font-size="19">owns</text>
	<text transform="matrix(0.9522 -0.3054 0.3054 0.9522 1305.6283 609.6225)" font-family="'MyriadPro-Regular'" font-size="19">languageSetTo</text>
	<text transform="matrix(0.7235 0.6903 -0.6903 0.7235 1455.1876 369.0725)" font-family="'MyriadPro-Regular'" font-size="19">knowsLanguage</text>
	<rect x="116.7" y="848.7" fill="#FBB03B" stroke="#000000" stroke-miterlimit="10" width="97.7" height="26"/>
	<rect x="116.7" y="875" fill="#7AC943" stroke="#000000" stroke-miterlimit="10" width="97.7" height="26"/>
	<rect x="116.7" y="901.3" fill="#FF7BAC" stroke="#000000" stroke-miterlimit="10" width="97.7" height="26"/>
	<rect x="116.7" y="927.6" fill="#FCEE21" stroke="#000000" stroke-miterlimit="10" width="97.7" height="26"/>
	<rect x="116.7" y="953.9" fill="#00FFFF" stroke="#000000" stroke-miterlimit="10" width="97.7" height="26"/>
	<rect x="116.7" y="980.2" fill="#3FA9F5" stroke="#000000" stroke-miterlimit="10" width="97.7" height="26"/>
	<rect x="116.7" y="1006.5" fill="#B3B3B3" stroke="#000000" stroke-miterlimit="10" width="97.7" height="26"/>
	<rect x="116.7" y="1032.8" fill="#C7B299" stroke="#000000" stroke-miterlimit="10" width="97.7" height="26"/>
	<text transform="matrix(1 0 0 1 130.5581 867.9481)" font-family="'MyriadPro-Regular'" font-size="15">Geography</text>
	<text transform="matrix(1 0 0 1 137.1953 1050.3334)" font-family="'MyriadPro-Regular'" font-size="15">Segment</text>
	<text transform="matrix(1 0 0 1 146.1128 893.917)" font-family="'MyriadPro-Regular'" font-size="15">Media</text>
	<text transform="matrix(1 0 0 1 151.625 945.042)" font-family="'MyriadPro-Regular'" font-size="15">App</text>
	<text transform="matrix(1 0 0 1 138.7178 920.75)" font-family="'MyriadPro-Regular'" font-size="15">Network</text>
	<text transform="matrix(1 0 0 1 143.8403 972.125)" font-family="'MyriadPro-Regular'" font-size="15">People</text>
	<text transform="matrix(1 0 0 1 149.0078 997.875)" font-family="'MyriadPro-Regular'" font-size="15">Place</text>
	<text transform="matrix(1 0 0 1 144.8931 1024.5)" font-family="'MyriadPro-Regular'" font-size="15">Device</text>
</g>
<g id="Layer_3">
	<text transform="matrix(1 0 0 1 304.749 876.7861)" font-family="'MyriadPro-Regular'" font-size="19">Brand</text>
	<text transform="matrix(1 0 0 1 512.4157 759.7861)" font-family="'MyriadPro-Regular'" font-size="19">GeoHash</text>
	<text transform="matrix(1 0 0 1 659.4157 671.9416)" font-family="'MyriadPro-Regular'" font-size="19">GeoCircle</text>
	<text transform="matrix(1 0 0 1 819.5842 336.8594)" font-family="'MyriadPro-Regular'" font-size="19">Place</text>
	<text transform="matrix(1 0 0 1 784.3445 161.5259)" font-family="'MyriadPro-Regular'" font-size="19">Residence</text>
	<text transform="matrix(1 0 0 1 1050.001 459.0433)" font-family="'MyriadPro-Regular'" font-size="19">Zone</text>
	<text transform="matrix(1 0 0 1 1379.0845 339.6747)" font-family="'MyriadPro-Regular'" font-size="19">Person</text>
	<text transform="matrix(1 0 0 1 1534.3501 170.5712)" font-family="'MyriadPro-Regular'" font-size="19">Account</text>
	<text transform="matrix(1 0 0 1 1189.957 171.8214)" font-family="'MyriadPro-Regular'" font-size="19">HouseHold</text>
	<text transform="matrix(1 0 0 1 1565.8296 531.1544)" font-family="'MyriadPro-Regular'" font-size="19">Language</text>
	<text transform="matrix(1 0 0 1 1364.333 861.8965)" font-family="'MyriadPro-Regular'" font-size="19">Segment</text>
	<text transform="matrix(1 0 0 1 250.0824 171.8212)" font-family="'MyriadPro-Regular'" font-size="19">Country</text>
	<text transform="matrix(1 0 0 1 268.0382 363.2292)" font-family="'MyriadPro-Regular'" font-size="19">State</text>
	<text transform="matrix(1 0 0 1 273.7492 546.4578)" font-family="'MyriadPro-Regular'" font-size="19">City</text>
	<text transform="matrix(1 0 0 1 492.9066 544.9579)"><tspan x="0" y="0" font-family="'MyriadPro-Regular'" font-size="17">District</tspan><tspan x="-8.1" y="20.4" font-family="'MyriadPro-Regular'" font-size="17">Predicate</tspan></text>
	<text transform="matrix(1 0 0 1 497.7925 317.778)" font-family="'MyriadPro-Regular'" font-size="19">GeoCircle</text>
	<text transform="matrix(1 0 0 1 301.5252 1049.0077)"><tspan x="0" y="0" font-family="'MyriadPro-Regular'" font-size="19">Media </tspan><tspan x="-8.4" y="22.8" font-family="'MyriadPro-Regular'" font-size="19">Channel</tspan></text>
	<text transform="matrix(1 0 0 1 516.5491 1062.7601)" font-family="'MyriadPro-Regular'" font-size="19">Media </text>
	<text transform="matrix(1 0 0 1 739.5491 863.0934)"><tspan x="0" y="0" font-family="'MyriadPro-Regular'" font-size="19">Media</tspan><tspan x="-13.4" y="22.8" font-family="'MyriadPro-Regular'" font-size="19">Summary </tspan></text>
	<text transform="matrix(1 0 0 1 1041.0413 924.9423)"><tspan x="0" y="0" font-family="'MyriadPro-Regular'" font-size="19">Mobile</tspan><tspan x="-18.3" y="22.8" font-family="'MyriadPro-Regular'" font-size="19">Application </tspan></text>
	<text transform="matrix(1 0 0 1 1041.0413 688.4887)"><tspan x="0" y="0" font-family="'MyriadPro-Regular'" font-size="19">Mobile</tspan><tspan x="0.6" y="22.8" font-family="'MyriadPro-Regular'" font-size="19">Device</tspan></text>
	<text transform="matrix(1 0 0 1 1174.6682 396.8582)"><tspan x="0" y="0" font-family="'MyriadPro-Regular'" font-size="19">WifiAccess</tspan><tspan x="20.9" y="22.8" font-family="'MyriadPro-Regular'" font-size="19">Point </tspan></text>
	<g>
		<text transform="matrix(1 0 0 1 787.6733 1058.1052)" font-family="'MyriadPro-Regular'" font-size="19">Org</text>
	</g>
</g>
</svg>
