<?xml version="1.0" encoding="utf-8"?>
<!-- Generator: Adobe Illustrator 17.1.0, SVG Export Plug-In . SVG Version: 6.00 Build 0)  -->
<!DOCTYPE svg PUBLIC "-//W3C//DTD SVG 1.1//EN" "http://www.w3.org/Graphics/SVG/1.1/DTD/svg11.dtd">
<svg version="1.1" id="Layer_1" xmlns="http://www.w3.org/2000/svg" xmlns:xlink="http://www.w3.org/1999/xlink" x="0px" y="0px"
	 viewBox="0 0 1864 1375" enable-background="new 0 0 1864 1375" xml:space="preserve">
<circle fill="#4992FF" stroke="#231F20" stroke-width="2" stroke-miterlimit="10" cx="710.1" cy="483" r="109.3"/>
<circle fill="#92B655" stroke="#231F20" stroke-width="2" stroke-miterlimit="10" cx="943.2" cy="406.9" r="77"/>
<circle fill="#DB4955" stroke="#231F20" stroke-width="2" stroke-miterlimit="10" cx="708.1" cy="239" r="77"/>
<circle fill="#FF9200" stroke="#231F20" stroke-width="2" stroke-miterlimit="10" cx="475.9" cy="406.9" r="77"/>
<circle fill="#49B6FF" stroke="#231F20" stroke-width="2" stroke-miterlimit="10" cx="566.5" cy="680" r="77"/>
<circle fill="#6D49AA" stroke="#231F20" stroke-width="2" stroke-miterlimit="10" cx="852.7" cy="680" r="77"/>
<path fill="#92B655" stroke="#231F20" stroke-width="2" stroke-miterlimit="10" d="M936.3,491.5c-1.7,43.1-15.4,83.2-37.8,116.9
	c5.7,3.7,11,8,15.6,12.9c26-38.4,40.7-83.3,42.2-130.5c-4.3,0.7-8.7,1-13.2,1C940.9,491.9,938.6,491.7,936.3,491.5z"/>
<path fill="#FF9200" stroke="#231F20" stroke-width="2" stroke-miterlimit="10" d="M628.4,268.6c-2.3-6.3-3.9-12.9-4.7-19.7
	c-33.9,12.2-65,31.9-91.2,58.1c-7.3,7.3-14.1,15-20.4,23c6.2,2.9,11.9,6.5,17.1,10.8C555,308.5,589.1,283.3,628.4,268.6z"/>
<path fill="#49B6FF" stroke="#231F20" stroke-width="2" stroke-miterlimit="10" d="M518.6,609.8c-22.9-34-36.9-74.5-38.6-118.1
	c-1.3,0.1-2.7,0.1-4.1,0.1c-5.5,0-10.8-0.5-16-1.5c1.5,48.1,16.6,93.9,43.4,132.8C507.9,618.1,513,613.6,518.6,609.8z"/>
<path fill="#6D49AA" stroke="#231F20" stroke-width="2" stroke-miterlimit="10" d="M778.2,721c-3.2-5.9-5.8-12.1-7.5-18.7
	c-19.9,5.7-40.8,8.7-62.5,8.7c-20.7,0-40.7-2.8-59.8-8c-1.8,6.6-4.5,12.9-7.7,18.7c21.7,6.1,44.4,9.3,67.6,9.3
	C732.2,730.9,755.7,727.5,778.2,721z"/>
<path fill="#DB4955" stroke="#231F20" stroke-width="2" stroke-miterlimit="10" d="M883.7,307c-26.2-26.2-57.3-45.9-91.2-58.1
	c-0.8,6.9-2.4,13.5-4.7,19.7c39.9,14.9,74.5,40.6,100.3,73.6c5.1-4.4,10.7-8.1,16.8-11.2C898.4,322.6,891.4,314.6,883.7,307z"/>
<text transform="matrix(1 0 0 1 640.5797 72.0042)" font-family="'SohoGothicPro-ExtraBold'" font-size="63.0786" letter-spacing="1">IDE</text>
<text transform="matrix(1 0 0 1 313.9998 126.6667)" font-family="'MyriadPro-Regular'" font-size="46">(Integrated Development Environment)</text>
<text transform="matrix(1 0 0 1 682.1668 242.6665)" font-family="'MyriadPro-Regular'" font-size="25">Write</text>
<text transform="matrix(1 0 0 1 910 413.9998)" font-family="'MyriadPro-Regular'" font-size="23">Debug</text>
<text transform="matrix(1 0 0 1 423 413.9998)" font-family="'MyriadPro-Regular'" font-size="23">Document</text>
<text transform="matrix(1 0 0 1 544.3333 687.5)" font-family="'MyriadPro-Regular'" font-size="23">Run</text>
<text transform="matrix(1 0 0 1 807.3335 687.5)" font-family="'MyriadPro-Regular'" font-size="25">Translate</text>
<text transform="matrix(1 0 0 1 640.5795 513)" font-family="'AdventureIsland-SansBold'" font-size="95">IDE</text>
</svg>
